<?xml version="1.0" standalone="no"?>
<!DOCTYPE svg PUBLIC "-//W3C//DTD SVG 1.1//EN" "http://www.w3.org/Graphics/SVG/1.1/DTD/svg11.dtd" >
<svg xmlns="http://www.w3.org/2000/svg" xmlns:xlink="http://www.w3.org/1999/xlink" version="1.1">
<metadata>
Created by FontForge 20170910 at Sun Nov 19 22:37:31 1933
 By Jimmy Wärting
(c)1999 Kees Gajentaan http://home.luna.nl/~xino freeware 
</metadata>
<defs>
<font id="Y2k-SubterranExpressKG" horiz-adv-x="800" >
  <font-face 
    font-family="Y2k Subterran Express KG"
    font-weight="400"
    font-stretch="normal"
    units-per-em="1000"
    panose-1="0 0 0 0 0 0 0 0 0 0"
    ascent="800"
    descent="-200"
    x-height="500"
    cap-height="700"
    bbox="-10 -203 1096 869"
    underline-thickness="20"
    underline-position="-143"
    unicode-range="U+0020-2122"
  />
<missing-glyph 
d="M50 0v800h700v-800h-700zM700 50v700h-600v-700h600z" />
    <glyph glyph-name=".notdef" 
d="M50 0v800h700v-800h-700zM700 50v700h-600v-700h600z" />
    <glyph glyph-name=".null" horiz-adv-x="0" 
 />
    <glyph glyph-name="nonmarkingreturn" horiz-adv-x="400" 
 />
    <glyph glyph-name="space" unicode=" " horiz-adv-x="400" 
 />
    <glyph glyph-name="exclam" unicode="!" horiz-adv-x="409" 
d="M308 252q0 -21 -17.5 -38.5t-38.5 -17.5h-196q-25 0 -40.5 16.5t-15.5 39.5v392q0 25 16.5 38.5t39.5 13.5t39.5 -13.5t16.5 -38.5v-336h84v336q0 25 16.5 38.5t39.5 13.5t39.5 -13.5t16.5 -38.5v-392zM252 0h-196q-25 0 -38.5 16.5t-13.5 39.5t13.5 39.5t38.5 16.5h196
q25 0 39 -16t14 -40q0 -23 -14 -39.5t-39 -16.5z" />
    <glyph glyph-name="quotedbl" unicode="&#x22;" horiz-adv-x="324" 
d="M224 548q0 -25 -16 -39t-40 -14q-23 0 -39.5 14t-16.5 39q0 -25 -16 -39t-40 -14q-23 0 -39.5 14t-16.5 39v98q0 25 16.5 38.5t39.5 13.5t39.5 -13.5t16.5 -38.5q0 25 16.5 38.5t39.5 13.5t39.5 -13.5t16.5 -38.5v-98z" />
    <glyph glyph-name="numbersign" unicode="#" 
d="M700 546q0 -56 -56 -56h-98q-22 0 -39 16t-17 40v98q0 21 17.5 38.5t38.5 17.5q25 0 40.5 -16.5t15.5 -39.5v-49h42q25 0 40.5 -13.5t15.5 -35.5zM406 546q0 -25 -16.5 -40.5t-39.5 -15.5q-22 0 -39 16t-17 40v98q0 21 17.5 38.5t38.5 17.5t38.5 -17.5t17.5 -38.5v-98z
M700 350q0 -56 -56 -56h-98q-22 0 -39 16t-17 40q0 21 17 35t39 14h98q25 0 40.5 -13.5t15.5 -35.5zM210 546q0 -25 -16.5 -40.5t-39.5 -15.5h-98q-22 0 -39 16t-17 40q0 21 17 35t39 14h42v49q0 21 17.5 38.5t38.5 17.5t38.5 -17.5t17.5 -38.5v-98zM700 147q0 -21 -15 -35
t-41 -14h-42v-49q0 -21 -15 -35t-41 -14q-21 0 -38.5 14.5t-17.5 34.5v98q0 25 16.5 40.5t39.5 15.5h98q56 0 56 -56zM210 350q0 -25 -16.5 -40.5t-39.5 -15.5h-98q-22 0 -39 16t-17 40q0 21 17 35t39 14h98q21 0 38.5 -14.5t17.5 -34.5zM406 49q0 -21 -17 -35t-39 -14
q-21 0 -38.5 14.5t-17.5 34.5v98q0 25 16.5 40.5t39.5 15.5q22 0 39 -16t17 -40v-98zM210 49q0 -21 -17 -35t-39 -14q-21 0 -38.5 14.5t-17.5 34.5v49h-42q-21 0 -38.5 14.5t-17.5 34.5q0 25 16.5 40.5t39.5 15.5h98q22 0 39 -16t17 -40v-98z" />
    <glyph glyph-name="dollar" unicode="$" 
d="M700 553q0 -25 -16 -39t-40 -14q-23 0 -39.5 14t-16.5 39v35h-140q-25 0 -38.5 16.5t-13.5 39.5t13.5 39.5t38.5 16.5h196q21 0 38.5 -14.5t17.5 -34.5v-98zM448 196h-196q-95 0 -165 55q-87 68 -87 197q0 124 86 194q72 58 166 58q25 0 39 -16t14 -40q0 -23 -14 -39.5
t-39 -16.5q-66 0 -103 -36t-37 -104q0 -70 36 -105t104 -35h196q25 0 39 -16t14 -40q0 -23 -14 -39.5t-39 -16.5zM700 252q0 -123 -89 -194q-73 -58 -163 -58q-28 0 -42.5 16t-14.5 40q0 23 15 39.5t42 16.5q63 0 101.5 36.5t38.5 103.5q0 70 -38 105t-102 35h-196
q-25 0 -38.5 16.5t-13.5 39.5t13.5 39.5t38.5 16.5h196q91 0 162 -55q90 -70 90 -197zM252 0h-203q-21 0 -35 14t-14 35v98q0 25 16.5 38.5t39.5 13.5t39.5 -13.5t16.5 -38.5v-35h140q25 0 39 -16t14 -40q0 -23 -14 -39.5t-39 -16.5z" />
    <glyph glyph-name="percent" unicode="%" 
d="M308 546q0 -63 -45.5 -108.5t-108.5 -45.5t-108.5 45.5t-45.5 108.5t45.5 108.5t108.5 45.5t108.5 -45.5t45.5 -108.5zM700 546q0 -63 -45.5 -108.5t-108.5 -45.5q-25 0 -36 2t-27 12l-189 -196q3 -6 8.5 -22.5t5.5 -40.5q0 -63 -45 -105t-109 -42q-63 0 -108.5 42.5
t-45.5 104.5q0 63 45.5 108.5t108.5 45.5q25 0 36 -2t27 -12l189 196q-3 6 -7 18q-7 21 -7 45q0 63 45.5 108.5t108.5 45.5t108.5 -45.5t45.5 -108.5zM700 147q0 -63 -45 -105t-109 -42q-63 0 -108.5 42.5t-45.5 104.5q0 63 45.5 108.5t108.5 45.5t108.5 -45.5t45.5 -108.5z
M595 546q0 16 -14 29t-35 13q-16 0 -29 -13t-13 -29q0 -20 12.5 -34.5t29.5 -14.5q21 0 35 14t14 35zM595 147q0 21 -14 35t-35 14q-16 0 -29 -14t-13 -35q0 -16 13 -29t29 -13q20 0 34.5 12.5t14.5 29.5zM196 546q0 16 -13 29t-29 13t-29 -13t-13 -29q0 -20 12.5 -34.5
t29.5 -14.5q16 0 29 14t13 35zM196 147q0 20 -12.5 34.5t-29.5 14.5q-16 0 -29 -14t-13 -35q0 -16 13 -29t29 -13t29 13t13 29z" />
    <glyph glyph-name="ampersand" unicode="&#x26;" 
d="M595 28l-98 196q-4 8 -4 22q0 23 14 42.5t39 19.5h98q24 0 37 -16t13 -38q0 -23 -13.5 -40.5t-36.5 -17.5h-14l63 -119q8 -16 8 -28q0 -22 -17.5 -36.5t-40.5 -14.5q-32 0 -48 30zM350 392h-98q-25 0 -38.5 16.5t-13.5 39.5t13.5 39.5t38.5 16.5h98q25 0 39 -16t14 -40
q0 -23 -14 -39.5t-39 -16.5zM644 392h-98q-56 0 -56 56q0 66 -39 103t-101 37h-98q-48 0 -84 -20q-63 -35 -63 -120q0 -26 4.5 -43t16.5 -34q5 -9 5 -25q0 -15 -5 -24q-11 -17 -16 -33.5t-5 -43.5q0 -66 38.5 -99.5t108.5 -33.5h166q25 0 39 -16t14 -40q0 -23 -14 -39.5
t-39 -16.5h-166q-95 0 -165 54q-87 67 -87 191q0 30 4 55q7 33 10 50q-8 34 -11 50.5t-3 47.5q0 124 86 194q72 58 166 58h98q82 0 146 -42q80 -52 99 -154h49q25 0 39 -16t14 -40q0 -23 -14 -39.5t-39 -16.5zM350 196h-98q-25 0 -38.5 16.5t-13.5 39.5t13.5 39.5t38.5 16.5
h98q25 0 39 -16t14 -40q0 -23 -14 -39.5t-39 -16.5z" />
    <glyph glyph-name="quotesingle" unicode="'" horiz-adv-x="212" 
d="M112 548q0 -25 -16 -39t-40 -14q-23 0 -39.5 14t-16.5 39v98q0 25 16.5 38.5t39.5 13.5t39.5 -13.5t16.5 -38.5v-98z" />
    <glyph glyph-name="parenleft" unicode="(" horiz-adv-x="404" 
d="M252 0q-30 0 -68 14q-74 27 -120 92q-64 91 -64 244q0 170 76 260t176 90q25 0 39 -16t14 -40q0 -23 -14 -39.5t-39 -16.5q-63 0 -105 -61t-42 -177t42 -177t105 -61q25 0 39 -16t14 -40q0 -23 -14 -39.5t-39 -16.5z" />
    <glyph glyph-name="parenright" unicode=")" horiz-adv-x="404" 
d="M304 350q0 -153 -65 -243q-46 -64 -121 -92q-41 -15 -66 -15t-38.5 16.5t-13.5 39.5t13.5 39.5t38.5 16.5q60 0 100 61.5t40 176.5q0 116 -40 177t-100 61q-25 0 -38.5 16.5t-13.5 39.5t13.5 39.5t38.5 16.5q27 0 65 -14q74 -27 121 -92q66 -92 66 -244z" />
    <glyph glyph-name="asterisk" unicode="*" horiz-adv-x="792" 
d="M490 287q-4 0 -7 -7l196 -196q12 -12 12 -29q0 -22 -19 -41t-42 -19q-16 0 -28 12l-196 196h-7v-154q0 -25 -16 -39t-40 -14q-23 0 -39.5 14t-16.5 39v154h-7l-91 -98q-17 -18 -38 -18t-37.5 17.5t-16.5 40.5q0 22 15 37l91 98v7h-154q-25 0 -38.5 16.5t-13.5 39.5
t13.5 39.5t38.5 16.5h154v7l-196 196q-9 9 -13 18.5t-4 20.5q0 23 18 40t41 17q11 0 22 -4.5t20 -14.5l189 -196h7v154q0 25 16.5 38.5t39.5 13.5t39.5 -13.5t16.5 -38.5v-154h7l98 98q12 12 29 12q22 0 41 -19t19 -42q0 -16 -12 -28l-98 -98q3 -7 7 -7h147q25 0 39 -16
t14 -40q0 -23 -14 -39.5t-39 -16.5h-147zM343 301q19 0 30.5 12.5t11.5 29.5q0 18 -10.5 30t-31.5 12q-16 0 -29 -13t-13 -29t13 -29t29 -13z" />
    <glyph glyph-name="plus" unicode="+" horiz-adv-x="694" 
d="M544 194h-188v-145q0 -25 -16 -39t-40 -14q-23 0 -39.5 14t-16.5 39v145h-188q-25 0 -38.5 16.5t-13.5 39.5t13.5 39.5t38.5 16.5h188v142q0 25 16.5 38.5t39.5 13.5t39.5 -13.5t16.5 -38.5v-142h188q25 0 39 -16t14 -40q0 -23 -14 -39.5t-39 -16.5z" />
    <glyph glyph-name="comma" unicode="," horiz-adv-x="212" 
d="M112 -42q0 -25 -16 -39t-40 -14q-23 0 -39.5 14t-16.5 39v98q0 25 16.5 38.5t39.5 13.5t39.5 -13.5t16.5 -38.5v-98z" />
    <glyph glyph-name="hyphen" unicode="-" horiz-adv-x="694" 
d="M544 306q25 0 39 -16t14 -40q0 -23 -14 -39.5t-39 -16.5h-488q-25 0 -38.5 16.5t-13.5 39.5t13.5 39.5t38.5 16.5h488z" />
    <glyph glyph-name="period" unicode="." horiz-adv-x="212" 
d="M112 56q0 -24 -16 -40t-40 -16t-40 16t-16 40t16 40t40 16t40 -16t16 -40z" />
    <glyph glyph-name="slash" unicode="/" horiz-adv-x="303" 
d="M203 638l-98 -588q-4 -26 -18 -38.5t-34 -12.5q-22 0 -38 15t-16 39q0 7 1 11l98 588q4 22 19 34.5t34 12.5q22 0 37.5 -13.5t15.5 -36.5q0 -7 -1 -11z" />
    <glyph glyph-name="zero" unicode="0" 
d="M700 245q0 -89 -57 -159q-70 -86 -195 -86h-196q-95 0 -165 54q-87 67 -87 191v203q0 91 55 162q70 90 197 90h196q90 0 162 -57q90 -71 90 -195v-203zM588 245v203q0 66 -39 103t-101 37h-196q-66 0 -103 -39t-37 -101v-203q0 -67 36 -100t104 -33h196q66 0 103 37
t37 96zM504 245q0 -21 -17 -35t-39 -14h-196q-25 0 -40.5 13.5t-15.5 35.5v203q0 22 16 39t40 17h196q21 0 38.5 -17.5t17.5 -38.5v-203zM392 308v84h-84v-84h84z" />
    <glyph glyph-name="one" unicode="1" 
d="M644 196h-196q-21 0 -38.5 14.5t-17.5 34.5v343h-238q-25 0 -38.5 16.5t-13.5 39.5t13.5 39.5t38.5 16.5h294q25 0 40.5 -16.5t15.5 -39.5v-336h140q25 0 39 -16t14 -40q0 -23 -14 -39.5t-39 -16.5zM308 245q0 -21 -17 -35t-39 -14h-196q-25 0 -38.5 16.5t-13.5 39.5
t13.5 39.5t38.5 16.5h140v84h-42q-25 0 -38.5 16.5t-13.5 39.5t13.5 39.5t38.5 16.5h98q21 0 38.5 -14.5t17.5 -34.5v-210zM644 0h-588q-25 0 -38.5 16.5t-13.5 39.5t13.5 39.5t38.5 16.5h588q25 0 39 -16t14 -40q0 -23 -14 -39.5t-39 -16.5z" />
    <glyph glyph-name="two" unicode="2" 
d="M700 448q0 -128 -89 -197q-71 -55 -163 -55h-196q-25 0 -38.5 16.5t-13.5 39.5t13.5 39.5t38.5 16.5h196q65 0 102.5 34.5t37.5 105.5q0 66 -39 103t-101 37h-399q-25 0 -38.5 16.5t-13.5 39.5t13.5 39.5t38.5 16.5h399q90 0 162 -57q90 -71 90 -195zM644 0h-595
q-21 0 -35 14t-14 35v203q0 129 86 197q70 55 166 55h196q25 0 39 -16t14 -40q0 -23 -14 -39.5t-39 -16.5h-196q-69 0 -104.5 -34.5t-35.5 -105.5v-140h532q25 0 39 -16t14 -40q0 -23 -14 -39.5t-39 -16.5z" />
    <glyph glyph-name="three" unicode="3" 
d="M700 245q0 -100 -73.5 -172.5t-178.5 -72.5h-392q-25 0 -38.5 16.5t-13.5 39.5t13.5 39.5t38.5 16.5h392q60 0 103.5 38t43.5 95q0 20 -5 37t-16 40q-10 10 -10 24q0 15 10 25q12 24 16.5 40t4.5 37q0 58 -44 99t-103 41h-392q-25 0 -38.5 16.5t-13.5 39.5t13.5 39.5
t38.5 16.5h392q103 0 177.5 -75.5t74.5 -176.5q0 -56 -21 -98q21 -53 21 -105zM448 196h-294q-21 0 -38.5 14.5t-17.5 34.5v203q0 21 17.5 38.5t38.5 17.5h294q25 0 39 -16t14 -40q0 -23 -14 -39.5t-39 -16.5h-238v-84h238q25 0 39 -16t14 -40q0 -23 -14 -39.5t-39 -16.5z
" />
    <glyph glyph-name="four" unicode="4" 
d="M700 49q0 -25 -16 -39t-40 -14q-23 0 -39.5 14t-16.5 39v595q0 25 16.5 38.5t39.5 13.5t39.5 -13.5t16.5 -38.5v-595zM504 448q0 -25 -16.5 -40.5t-39.5 -15.5h-196q-56 0 -56 56v98q0 25 16.5 38.5t39.5 13.5t39.5 -13.5t16.5 -38.5v-49h84v147q0 25 16.5 38.5
t39.5 13.5t39.5 -13.5t16.5 -38.5v-196zM504 49q0 -25 -16 -39t-40 -14q-23 0 -39.5 14t-16.5 39v147h-343q-21 0 -35 14t-14 35v301q0 25 16.5 38.5t39.5 13.5t39.5 -13.5t16.5 -38.5v-238h336q22 0 39 -16t17 -40v-203z" />
    <glyph glyph-name="five" unicode="5" 
d="M644 588h-532v-140q0 -70 38 -105t102 -35h196q25 0 39 -16t14 -40q0 -23 -14 -39.5t-39 -16.5h-196q-91 0 -162 55q-90 70 -90 197v196q0 21 17.5 38.5t38.5 17.5h588q25 0 39 -16t14 -40q0 -23 -14 -39.5t-39 -16.5zM700 252q0 -124 -86 -194q-72 -58 -166 -58h-392
q-25 0 -38.5 16.5t-13.5 39.5t13.5 39.5t38.5 16.5h392q48 0 84 20q63 35 63 120q0 69 -38.5 104.5t-108.5 35.5h-196q-25 0 -38.5 16.5t-13.5 39.5t13.5 39.5t38.5 16.5h196q95 0 165 -55q87 -68 87 -197z" />
    <glyph glyph-name="six" unicode="6" 
d="M700 252q0 -123 -89 -194q-73 -58 -163 -58h-196q-94 0 -165 57q-87 70 -87 195v196q0 91 55 162q70 90 197 90h294q25 0 39 -16t14 -40q0 -23 -14 -39.5t-39 -16.5h-294q-66 0 -103 -39t-37 -101v-196q0 -67 37.5 -103.5t102.5 -36.5h196q63 0 101.5 36.5t38.5 103.5
q0 70 -38 105t-102 35h-196q-25 0 -38.5 16.5t-13.5 39.5t13.5 39.5t38.5 16.5h196q91 0 162 -55q90 -70 90 -197zM448 196h-196q-25 0 -38.5 16.5t-13.5 39.5t13.5 39.5t38.5 16.5h196q25 0 39 -16t14 -40q0 -23 -14 -39.5t-39 -16.5z" />
    <glyph glyph-name="seven" unicode="7" 
d="M700 353q0 -15 -4 -25.5t-10 -16.5l-294 -294q-21 -21 -45 -21q-23 0 -40 17t-17 40t18 41l280 280v214h-532q-25 0 -38.5 16.5t-13.5 39.5t13.5 39.5t38.5 16.5h588q25 0 40.5 -16.5t15.5 -39.5v-291zM490 409l-395 -392q-19 -19 -40 -19q-22 0 -38 17t-16 41
q0 22 16 38l298 298h-259q-25 0 -38.5 16.5t-13.5 39.5t13.5 39.5t38.5 16.5h392q27 0 40.5 -18t13.5 -43q0 -22 -12 -34z" />
    <glyph glyph-name="eight" unicode="8" 
d="M700 252q0 -123 -89 -194q-73 -58 -163 -58h-196q-94 0 -165 57q-87 70 -87 195q0 29 5.5 55t8.5 43q-8 34 -11 50.5t-3 47.5q0 124 86 194q72 58 166 58h196q90 0 162 -57q90 -71 90 -195q0 -56 -21 -98q13 -31 17 -49t4 -49zM588 252q0 21 -1.5 29t-12.5 41
q-5 12 -5 24q0 13 6.5 31t9.5 31.5t3 39.5q0 66 -39 103t-101 37h-196q-66 0 -103 -36t-37 -104q0 -26 4.5 -43t16.5 -34q5 -9 5 -25q0 -15 -5 -24q-12 -18 -16.5 -31.5t-4.5 -38.5q0 -67 37.5 -103.5t102.5 -36.5h196q63 0 101.5 36.5t38.5 103.5zM448 392h-196
q-25 0 -38.5 16.5t-13.5 39.5t13.5 39.5t38.5 16.5h196q25 0 39 -16t14 -40q0 -23 -14 -39.5t-39 -16.5zM448 196h-196q-25 0 -38.5 16.5t-13.5 39.5t13.5 39.5t38.5 16.5h196q25 0 39 -16t14 -40q0 -23 -14 -39.5t-39 -16.5z" />
    <glyph glyph-name="nine" unicode="9" 
d="M448 392h-196q-25 0 -38.5 16.5t-13.5 39.5t13.5 39.5t38.5 16.5h196q25 0 39 -16t14 -40q0 -23 -14 -39.5t-39 -16.5zM700 252q0 -91 -55 -162q-70 -90 -197 -90h-294q-25 0 -38.5 16.5t-13.5 39.5t13.5 39.5t38.5 16.5h294q66 0 103 39t37 101v196q0 67 -36 102
q-39 38 -104 38h-196q-63 0 -101.5 -36.5t-38.5 -103.5q0 -70 38 -105t102 -35h196q25 0 39 -16t14 -40q0 -23 -14 -39.5t-39 -16.5h-196q-91 0 -162 55q-90 70 -90 197q0 123 89 194q73 58 163 58h196q94 0 165 -57q87 -70 87 -195v-196z" />
    <glyph glyph-name="colon" unicode=":" horiz-adv-x="212" 
d="M112 280q0 -24 -16 -40t-40 -16t-40 16t-16 40t16 40t40 16t40 -16t16 -40zM112 56q0 -24 -16 -40t-40 -16t-40 16t-16 40t16 40t40 16t40 -16t16 -40z" />
    <glyph glyph-name="semicolon" unicode=";" horiz-adv-x="212" 
d="M112 280q0 -24 -16 -40t-40 -16t-40 16t-16 40t16 40t40 16t40 -16t16 -40zM112 -42q0 -25 -16 -39t-40 -14q-23 0 -39.5 14t-16.5 39v98q0 25 16.5 38.5t39.5 13.5t39.5 -13.5t16.5 -38.5v-98z" />
    <glyph glyph-name="less" unicode="&#x3c;" horiz-adv-x="507" 
d="M316 16l-301 294q-16 16 -16 38q0 21 16 39l301 294q21 21 46 21q22 0 37 -15t15 -37q0 -14 -4.5 -24t-16.5 -22l-259 -252l259 -259q23 -23 23 -50q0 -21 -14 -36t-36 -15q-13 0 -25 5.5t-25 18.5z" />
    <glyph glyph-name="equal" unicode="=" horiz-adv-x="694" 
d="M544 112q25 0 39 -16t14 -40q0 -23 -14 -39.5t-39 -16.5h-488q-25 0 -38.5 16.5t-13.5 39.5t13.5 39.5t38.5 16.5h488zM544 306q25 0 39 -16t14 -40q0 -23 -14 -39.5t-39 -16.5h-488q-25 0 -38.5 16.5t-13.5 39.5t13.5 39.5t38.5 16.5h488z" />
    <glyph glyph-name="greater" unicode="&#x3e;" horiz-adv-x="507" 
d="M407 310l-301 -294q-24 -24 -51 -24q-21 0 -35 15t-14 36q0 27 23 50l259 259l-259 252q-21 21 -21 46q0 21 15 37t37 16q24 0 46 -22l301 -294q16 -16 16 -39t-16 -38z" />
    <glyph glyph-name="question" unicode="?" 
d="M700 448q0 -124 -86 -194q-72 -58 -166 -58q-25 0 -38.5 16.5t-13.5 39.5t13.5 39.5t38.5 16.5q48 0 84 20q63 35 63 120q0 66 -40 103t-107 37h-196q-66 0 -103 -39t-37 -101q0 -25 -16 -39t-40 -14q-23 0 -39.5 14t-16.5 39q0 94 57 165q70 87 195 87h196q94 0 165 -57
q87 -70 87 -195zM448 392h-140v-140q0 -25 -16 -39t-40 -14q-23 0 -39.5 14t-16.5 39v196q0 21 17.5 38.5t38.5 17.5h196q25 0 39 -16t14 -40q0 -23 -14 -39.5t-39 -16.5zM448 0h-196q-25 0 -38.5 16.5t-13.5 39.5t13.5 39.5t38.5 16.5h196q25 0 39 -16t14 -40
q0 -23 -14 -39.5t-39 -16.5z" />
    <glyph glyph-name="at" unicode="@" 
d="M700 322q0 -37 -42 -78q-50 -48 -112 -48h-294q-25 0 -40.5 16.5t-15.5 39.5v196q0 22 16 39t40 17h196q21 0 38.5 -17.5t17.5 -38.5v-140h42q42 0 42 42v98q0 66 -39 103t-101 37h-196q-66 0 -103 -39t-37 -101v-196q0 -67 37.5 -103.5t102.5 -36.5h392q25 0 39 -16
t14 -40q0 -23 -14 -39.5t-39 -16.5h-392q-94 0 -165 57q-87 70 -87 195v196q0 95 55 165q68 87 197 87h196q90 0 162 -57q90 -71 90 -195v-126zM392 308v84h-84v-84h84z" />
    <glyph glyph-name="A" unicode="A" 
d="M700 56q0 -25 -16 -39t-40 -14q-23 0 -39.5 14t-16.5 39v294q0 101 -61 169.5t-177 68.5q-115 0 -176.5 -68.5t-61.5 -169.5v-294q0 -25 -16 -39t-40 -14q-23 0 -39.5 14t-16.5 39v294q0 122 70 219q95 131 280 131q126 0 212 -64q71 -53 108 -142q30 -72 30 -144v-294z
M504 252q0 -21 -17.5 -38.5t-38.5 -17.5h-196q-25 0 -40.5 16.5t-15.5 39.5v98q0 56 35 100q43 54 119 54q77 0 119 -53q35 -44 35 -101v-98zM448 0h-196q-25 0 -38.5 16.5t-13.5 39.5t13.5 39.5t38.5 16.5h196q25 0 39 -16t14 -40q0 -23 -14 -39.5t-39 -16.5zM392 308v42
q0 25 -12.5 38.5t-29.5 13.5q-18 0 -30 -13t-12 -39v-42h84z" />
    <glyph glyph-name="B" unicode="B" 
d="M448 392h-196q-25 0 -38.5 16.5t-13.5 39.5t13.5 39.5t38.5 16.5h196q25 0 39 -16t14 -40q0 -23 -14 -39.5t-39 -16.5zM700 252q0 -105 -73.5 -178.5t-178.5 -73.5h-392q-22 0 -39 16t-17 40v196q0 25 16.5 38.5t39.5 13.5t39.5 -13.5t16.5 -38.5v-140h336
q58 0 102.5 41.5t44.5 98.5q0 38 -21 70q-7 7 -7 28q0 14 1 18.5t6 9.5q10 16 15.5 34t5.5 36q0 58 -44 99t-103 41h-336v-140q0 -25 -16 -39t-40 -14q-23 0 -39.5 14t-16.5 39v196q0 25 16.5 40.5t39.5 15.5h392q105 0 178.5 -73.5t73.5 -178.5q0 -56 -21 -98
q21 -42 21 -98zM448 196h-196q-25 0 -38.5 16.5t-13.5 39.5t13.5 39.5t38.5 16.5h196q25 0 39 -16t14 -40q0 -23 -14 -39.5t-39 -16.5z" />
    <glyph glyph-name="C" unicode="C" 
d="M700 56q0 -25 -16.5 -40.5t-39.5 -15.5h-294q-76 0 -146 28q-90 36 -141 106q-63 86 -63 216t62 215q51 70 141 106q72 29 147 29h294q22 0 39 -16t17 -40v-196q0 -25 -16 -39t-40 -14q-23 0 -39.5 14t-16.5 39v140h-238q-104 0 -171 -61t-67 -177t67 -177t171 -61h238
v140q0 25 16.5 38.5t39.5 13.5t39.5 -13.5t16.5 -38.5v-196zM448 196h-98q-56 0 -100 35q-54 43 -54 119q0 77 53 119q44 35 101 35h98q25 0 39 -16t14 -40q0 -23 -14 -39.5t-39 -16.5h-98q-25 0 -38.5 -12.5t-13.5 -29.5q0 -18 13 -30t39 -12h98q25 0 39 -16t14 -40
q0 -23 -14 -39.5t-39 -16.5z" />
    <glyph glyph-name="D" unicode="D" 
d="M700 350q0 -129 -64 -215q-52 -70 -142 -106q-72 -29 -144 -29h-294q-22 0 -39 16t-17 40v196q0 25 16.5 38.5t39.5 13.5t39.5 -13.5t16.5 -38.5v-140h238q107 0 176 61t69 177q0 115 -69.5 176.5t-175.5 61.5h-238v-140q0 -25 -16 -39t-40 -14q-23 0 -39.5 14t-16.5 39
v196q0 25 16.5 40.5t39.5 15.5h294q122 0 219 -70q131 -95 131 -280zM504 350q0 -77 -53 -119q-44 -35 -101 -35h-98q-21 0 -38.5 17.5t-17.5 38.5v196q0 21 17.5 38.5t38.5 17.5h98q56 0 100 -35q54 -43 54 -119zM350 308q25 0 39 12t14 30q0 17 -13.5 29.5t-39.5 12.5h-42
v-84h42z" />
    <glyph glyph-name="E" unicode="E" 
d="M609 252q0 -21 -17.5 -38.5t-38.5 -17.5h-294q-25 0 -38.5 16.5t-13.5 39.5t13.5 39.5t38.5 16.5h238v84h-238q-25 0 -38.5 16.5t-13.5 39.5t13.5 39.5t38.5 16.5h294q21 0 38.5 -17.5t17.5 -38.5v-196zM651 0h-595q-22 0 -39 16t-17 40v588q0 25 16.5 40.5t39.5 15.5
h595q25 0 39 -16t14 -40q0 -23 -14 -39.5t-39 -16.5h-539v-476h539q25 0 39 -16t14 -40q0 -23 -14 -39.5t-39 -16.5z" />
    <glyph glyph-name="F" unicode="F" 
d="M644 588h-532v-532q0 -25 -16 -39t-40 -14q-23 0 -39.5 14t-16.5 39v588q0 25 16.5 40.5t39.5 15.5h588q25 0 39 -16t14 -40q0 -23 -14 -39.5t-39 -16.5zM602 252q0 -22 -16 -39t-40 -17h-238v-140q0 -25 -16 -39t-40 -14q-23 0 -39.5 14t-16.5 39v196q0 21 17.5 38.5
t38.5 17.5h238v84h-238q-25 0 -38.5 16.5t-13.5 39.5t13.5 39.5t38.5 16.5h294q25 0 40.5 -16.5t15.5 -39.5v-196z" />
    <glyph glyph-name="G" unicode="G" 
d="M644 392h-294q-25 0 -38.5 -12.5t-13.5 -29.5q0 -18 13 -30t39 -12h98q25 0 39 -16t14 -40q0 -23 -14 -39.5t-39 -16.5h-98q-56 0 -100 35q-54 43 -54 119q0 77 53 119q44 35 101 35h294q25 0 39 -16t14 -40q0 -23 -14 -39.5t-39 -16.5zM700 56q0 -25 -16.5 -40.5
t-39.5 -15.5h-294q-76 0 -146 28q-90 36 -141 106q-63 86 -63 216t62 215q51 70 141 106q72 29 147 29h294q25 0 39 -16t14 -40q0 -23 -14 -39.5t-39 -16.5h-294q-104 0 -171 -61t-67 -177t67 -177t171 -61h238v140q0 25 16.5 38.5t39.5 13.5t39.5 -13.5t16.5 -38.5v-196z
" />
    <glyph glyph-name="H" unicode="H" 
d="M700 56q0 -29 -10 -42.5t-36 -13.5h-206q-22 0 -39 16t-17 40v140h-84v-140q0 -25 -16 -39t-40 -14q-23 0 -39.5 14t-16.5 39v196q0 21 17.5 38.5t38.5 17.5h196q25 0 40.5 -16.5t15.5 -39.5v-140h84v532q0 25 16.5 38.5t39.5 13.5t39.5 -13.5t16.5 -38.5v-588zM504 448
q0 -22 -16 -39t-40 -17h-196q-21 0 -38.5 17.5t-17.5 38.5v140h-84v-532q0 -25 -16 -39t-40 -14q-23 0 -39.5 14t-16.5 39v588q0 25 16.5 40.5t39.5 15.5h196q22 0 39 -16t17 -40v-140h84v140q0 25 16.5 38.5t39.5 13.5t39.5 -13.5t16.5 -38.5v-196z" />
    <glyph glyph-name="I" unicode="I" horiz-adv-x="600" 
d="M448 0h-98q-56 0 -56 56v588q0 56 56 56h98q25 0 39 -16t14 -40q0 -23 -14 -39.5t-39 -16.5h-42v-476h42q25 0 39 -16t14 -40q0 -23 -14 -39.5t-39 -16.5zM203 56q0 -25 -13.5 -40.5t-35.5 -15.5h-98q-25 0 -38.5 16.5t-13.5 39.5t13.5 39.5t38.5 16.5h42v476h-42
q-25 0 -38.5 16.5t-13.5 39.5t13.5 39.5t38.5 16.5h98q21 0 35 -15t14 -41v-588z" />
    <glyph glyph-name="J" unicode="J" 
d="M504 350q0 -56 -35 -100q-43 -54 -119 -54q-77 0 -119 53q-35 44 -35 101q0 25 16.5 38.5t39.5 13.5t39.5 -13.5t16.5 -38.5q0 -42 42 -42t42 42v294q0 25 16.5 38.5t39.5 13.5t39.5 -13.5t16.5 -38.5v-294zM700 350q0 -129 -64 -215q-52 -70 -142 -106q-72 -29 -144 -29
q-122 0 -219 70q-131 95 -131 280q0 25 16.5 38.5t39.5 13.5t39.5 -13.5t16.5 -38.5q0 -115 68.5 -176.5t169.5 -61.5q104 0 171 61t67 177v294q0 25 16.5 38.5t39.5 13.5t39.5 -13.5t16.5 -38.5v-294z" />
    <glyph glyph-name="K" unicode="K" 
d="M483 609l-196 -196q-21 -21 -46 -21q-21 0 -36.5 15.5t-15.5 37.5q0 13 4.5 23t16.5 22l196 196q18 18 41 18q22 0 38 -16t16 -38q0 -23 -18 -41zM679 189q17 -17 17 -38q0 -22 -17.5 -38.5t-39.5 -16.5q-11 0 -19 3t-18 13l-196 196q-18 18 -18 42t18 42l196 196
q16 16 37 16q22 0 39.5 -16.5t17.5 -38.5q0 -21 -17 -38l-159 -161zM483 91q13 -13 13 -34q0 -23 -15.5 -41.5t-38.5 -18.5q-8 0 -18 4.5t-18 12.5l-196 196q-21 21 -21 48q0 21 14 37t35 16q12 0 24 -5.5t25 -18.5zM154 0h-105q-21 0 -35 15t-14 41v588q0 25 13.5 40.5
t35.5 15.5h105q25 0 39 -16t14 -40q0 -23 -14 -39.5t-39 -16.5h-42v-476h42q25 0 39 -16t14 -40q0 -23 -14 -39.5t-39 -16.5z" />
    <glyph glyph-name="L" unicode="L" 
d="M112 644v-532h532q25 0 39 -16t14 -40q0 -23 -14 -39.5t-39 -16.5h-588q-22 0 -39 16t-17 40v588q0 25 16.5 38.5t39.5 13.5t39.5 -13.5t16.5 -38.5zM308 644v-336h336q25 0 39 -16t14 -40q0 -23 -14 -39.5t-39 -16.5h-392q-21 0 -38.5 17.5t-17.5 38.5v392
q0 25 16.5 38.5t39.5 13.5t39.5 -13.5t16.5 -38.5z" />
    <glyph glyph-name="M" unicode="M" 
d="M448 700q103 0 177.5 -75.5t74.5 -176.5v-399q0 -25 -16 -39t-40 -14q-23 0 -39.5 14t-16.5 39v399q0 58 -41 99t-99 41q-38 0 -70 -21q-7 -3 -18.5 -4t-12.5 -1q-16 0 -25 5q-16 10 -34 15.5t-36 5.5q-61 0 -100.5 -40.5t-39.5 -99.5v-399q0 -25 -16 -39t-40 -14
q-23 0 -39.5 14t-16.5 39v399q0 101 73.5 176.5t178.5 75.5q20 0 46 -8q9 -3 52 -20q24 12 49 20t49 8zM504 448v-399q0 -21 -17 -35t-39 -14h-196q-25 0 -40.5 13.5t-15.5 35.5v399q0 25 16.5 38.5t39.5 13.5t39.5 -13.5t16.5 -38.5v-343h84v343q0 25 16.5 38.5t39.5 13.5
t39.5 -13.5t16.5 -38.5z" />
    <glyph glyph-name="N" unicode="N" 
d="M252 700q123 0 194 -89q58 -73 58 -163v-203q0 -25 -16 -39t-40 -14q-23 0 -39.5 14t-16.5 39v203q0 63 -36.5 101.5t-103.5 38.5q-66 0 -103 -39t-37 -101v-399q0 -25 -16 -39t-40 -14q-23 0 -39.5 14t-16.5 39v399q0 90 57 162q71 90 195 90zM700 644v-399
q0 -90 -55 -159q-69 -86 -197 -86q-124 0 -194 85q-58 70 -58 160v203q0 25 16.5 38.5t39.5 13.5t39.5 -13.5t16.5 -38.5v-203q0 -60 36.5 -96.5t103.5 -36.5q66 0 103 37t37 96v399q0 25 16.5 38.5t39.5 13.5t39.5 -13.5t16.5 -38.5z" />
    <glyph glyph-name="O" unicode="O" 
d="M700 350q0 -145 -103.5 -247.5t-246.5 -102.5q-147 0 -248.5 101.5t-101.5 248.5q0 143 101.5 246.5t248.5 103.5q142 0 246 -104t104 -246zM588 350q0 95 -69.5 166.5t-168.5 71.5t-168.5 -70.5t-69.5 -167.5q0 -100 69 -169t169 -69t169 69t69 169zM504 350
q0 -67 -44.5 -110.5t-109.5 -43.5q-64 0 -109 44t-45 110q0 63 45.5 108.5t108.5 45.5t108.5 -45.5t45.5 -108.5zM392 350q0 16 -13 29t-29 13q-19 0 -30.5 -12.5t-11.5 -29.5q0 -42 42 -42q18 0 30 10.5t12 31.5z" />
    <glyph glyph-name="P" unicode="P" 
d="M448 392h-196q-25 0 -38.5 16.5t-13.5 39.5t13.5 39.5t38.5 16.5h196q25 0 39 -16t14 -40q0 -23 -14 -39.5t-39 -16.5zM700 448q0 -129 -86 -197q-70 -55 -166 -55h-140v-147q0 -25 -16 -39t-40 -14q-23 0 -39.5 14t-16.5 39v203q0 25 16.5 40.5t39.5 15.5h196
q52 0 84 17q63 33 63 123q0 66 -40 103t-107 37h-336v-539q0 -25 -16 -39t-40 -14q-23 0 -39.5 14t-16.5 39v595q0 21 17.5 38.5t38.5 17.5h392q94 0 165 -57q87 -70 87 -195z" />
    <glyph glyph-name="Q" unicode="Q" 
d="M714 175q0 -24 -21 -35q-15 -16 -38 -16t-39 16l-42 42q-15 15 -15 38q0 12 8 25q10 21 15.5 48.5t5.5 56.5q0 100 -69 169t-169 69q-99 0 -168.5 -70.5t-69.5 -167.5q0 -100 69 -169t169 -69q29 0 53.5 6.5t44.5 21.5q8 2 13 2q12 0 26.5 -6.5t23.5 -16.5l49 -42
q16 -16 16 -39t-16 -38q-20 -16 -42 -16t-42 16l-2 2q-6 7 -12 19q-53 -21 -112 -21q-147 0 -248.5 101.5t-101.5 248.5q0 143 101.5 246.5t248.5 103.5q143 0 246.5 -101.5t103.5 -248.5q0 -20 -8 -57q-12 -55 -13 -62l14 -14q21 -21 21 -42zM504 350q0 -67 -44.5 -110.5
t-109.5 -43.5q-64 0 -109 44t-45 110q0 63 45.5 108.5t108.5 45.5t108.5 -45.5t45.5 -108.5zM392 350q0 16 -13 29t-29 13q-19 0 -30.5 -12.5t-11.5 -29.5q0 -42 42 -42q18 0 30 10.5t12 31.5z" />
    <glyph glyph-name="R" unicode="R" 
d="M448 392h-196q-25 0 -38.5 16.5t-13.5 39.5t13.5 39.5t38.5 16.5h196q25 0 39 -16t14 -40q0 -23 -14 -39.5t-39 -16.5zM700 448q0 -98 -52 -163q-46 -58 -116 -75q17 -39 42 -90q8 -17 21 -43q7 -17 7 -32q0 -26 -28 -45q-10 -5 -24 -5q-36 0 -53 33l-98 196q-5 10 -5 24
q0 20 13.5 36.5t40.5 16.5q66 0 103 38t37 109q0 67 -36 102q-39 38 -104 38h-336v-476h84v140q0 25 16.5 38.5t39.5 13.5t39.5 -13.5t16.5 -38.5v-203q0 -21 -17 -35t-39 -14h-196q-21 0 -38.5 14.5t-17.5 34.5v595q0 21 17.5 38.5t38.5 17.5h392q94 0 165 -57
q87 -70 87 -195z" />
    <glyph glyph-name="S" unicode="S" 
d="M644 588h-392q-66 0 -103 -36t-37 -104q0 -70 36 -105t104 -35h196q25 0 39 -16t14 -40q0 -23 -14 -39.5t-39 -16.5h-196q-95 0 -165 55q-87 68 -87 197q0 124 86 194q72 58 166 58h392q25 0 39 -16t14 -40q0 -23 -14 -39.5t-39 -16.5zM700 252q0 -123 -89 -194
q-73 -58 -163 -58h-399q-25 0 -38.5 16.5t-13.5 39.5t13.5 39.5t38.5 16.5h399q63 0 101.5 36.5t38.5 103.5q0 70 -38 105t-102 35h-196q-25 0 -38.5 16.5t-13.5 39.5t13.5 39.5t38.5 16.5h196q91 0 162 -55q90 -70 90 -197z" />
    <glyph glyph-name="T" unicode="T" 
d="M700 448q0 -25 -16 -39t-40 -14q-23 0 -39.5 14t-16.5 39v140h-476v-140q0 -25 -16 -39t-40 -14q-23 0 -39.5 14t-16.5 39v196q0 21 17.5 38.5t38.5 17.5h588q25 0 40.5 -16.5t15.5 -39.5v-196zM504 49q0 -21 -15 -35t-41 -14h-196q-21 0 -38.5 14.5t-17.5 34.5v399
q0 25 16.5 38.5t39.5 13.5t39.5 -13.5t16.5 -38.5v-336h84v336q0 25 16.5 38.5t39.5 13.5t39.5 -13.5t16.5 -38.5v-399z" />
    <glyph glyph-name="U" unicode="U" 
d="M700 350q0 -125 -72 -222q-95 -128 -278 -128q-130 0 -215 62q-70 51 -106 141q-29 72 -29 147v294q0 21 14.5 38.5t34.5 17.5h203q25 0 39 -16t14 -40q0 -23 -14 -39.5t-39 -16.5h-140v-238q0 -104 61 -171t177 -67t177 67t61 171v238h-140q-25 0 -38.5 16.5t-13.5 39.5
t13.5 39.5t38.5 16.5h196q21 0 38.5 -17.5t17.5 -38.5v-294zM504 350q0 -56 -35 -100q-43 -54 -119 -54q-77 0 -119 53q-35 44 -35 101v98q0 25 16.5 38.5t39.5 13.5t39.5 -13.5t16.5 -38.5v-98q0 -25 12 -39t30 -14q17 0 29.5 13.5t12.5 39.5v98q0 25 16.5 38.5t39.5 13.5
t39.5 -13.5t16.5 -38.5v-98z" />
    <glyph glyph-name="V" unicode="V" 
d="M497 623l-98 -294q-4 -14 -21 -23t-35 -9t-31 7.5t-18 24.5l-98 294q-3 8 -3 16q0 22 18.5 36.5t43.5 14.5q17 0 29 -7.5t17 -24.5l45 -140l46 140q4 14 16 21t26 7q25 0 45 -14.5t20 -36.5q0 -4 -2 -12zM693 623l-196 -588q-12 -35 -56 -35h-196q-37 0 -49 35l-196 588
q-3 11 -3 19q0 22 16.5 35.5t38.5 13.5q16 0 28 -7.5t18 -25.5l189 -546h119l182 546q10 30 44 30q25 0 44 -14.5t19 -37.5q0 -9 -2 -13z" />
    <glyph glyph-name="W" unicode="W" horiz-adv-x="1192" 
d="M889 623l-98 -294q-12 -36 -48 -36t-50 36l-105 294q-4 12 -4 24q0 22 16.5 36.5t38.5 14.5q18 0 32.5 -10t21.5 -30l49 -140l49 140q7 20 21.5 30.5t30.5 10.5q20 0 35 -14t15 -37q0 -13 -4 -25zM1092 623l-203 -588q-12 -35 -49 -35h-196q-20 0 -35.5 10t-20.5 25
l-42 140l-49 -140q-13 -35 -49 -35h-196q-44 0 -56 35l-196 588q-4 11 -4 24q0 23 16.5 37.5t38.5 14.5q17 0 32 -10.5t22 -30.5l182 -546h119l84 252q11 36 54 36q39 0 51 -36l84 -252h119l189 546q7 19 22 29t32 10q22 0 38.5 -13.5t16.5 -37.5q0 -12 -4 -23zM497 623
l-98 -294q-6 -19 -20 -29t-32 -10q-39 0 -53 39l-98 294q-2 5 -3 11.5t-1 11.5q0 23 16.5 37.5t38.5 14.5q18 0 32.5 -10t21.5 -30l49 -140l42 140q6 21 20.5 31t32.5 10q22 0 39 -15t17 -38q0 -12 -4 -23z" />
    <glyph glyph-name="X" unicode="X" 
d="M504 546q0 -21 -17.5 -38.5t-38.5 -17.5h-196q-25 0 -40.5 16.5t-15.5 39.5v98q0 25 16.5 38.5t39.5 13.5t39.5 -13.5t16.5 -38.5v-42h84v42q0 25 16.5 38.5t39.5 13.5t39.5 -13.5t16.5 -38.5v-98zM700 56q0 -25 -16 -39t-40 -14q-23 0 -39.5 14t-16.5 39v98
q0 66 -39 103t-101 37h-7q-25 0 -38.5 16.5t-13.5 39.5t13.5 39.5t38.5 16.5h7q63 0 101.5 36.5t38.5 103.5v98q0 25 16.5 38.5t39.5 13.5t39.5 -13.5t16.5 -38.5v-98q0 -64 -27 -116q-23 -45 -64 -80q42 -36 64 -79q27 -52 27 -117v-98zM252 293h-10q-62 0 -96 -36
t-34 -103v-98q0 -25 -16 -39t-40 -14q-23 0 -39.5 14t-16.5 39v98q0 66 23.5 114.5t67.5 81.5q-43 32 -67 81t-24 115v98q0 25 16.5 38.5t39.5 13.5t39.5 -13.5t16.5 -38.5v-98q0 -66 34 -103t95 -37h11q26 0 39.5 -16t13.5 -41q0 -23 -14 -39.5t-39 -16.5zM504 56
q0 -25 -16 -39t-40 -14q-23 0 -39.5 14t-16.5 39v42h-84v-42q0 -25 -16 -39t-40 -14q-23 0 -39.5 14t-16.5 39v98q0 22 16 39t40 17h196q21 0 38.5 -17.5t17.5 -38.5v-98z" />
    <glyph glyph-name="Y" unicode="Y" 
d="M495 609l-98 -98q-20 -20 -39 -20q-18 0 -38 20l-98 98q-19 19 -19 39q0 22 18.5 37.5t42.5 15.5q21 0 35 -15l56 -63l63 63q13 13 33 13q23 0 41.5 -16.5t18.5 -38.5q0 -19 -16 -35zM691 511l-182 -182v-273q0 -56 -56 -56h-196q-22 0 -39 16t-17 40v273l-182 182
q-9 9 -13 18.5t-4 20.5q0 23 17 40t41 17t43 -19l196 -196q8 -17 11 -24.5t3 -17.5v-238h84v238q0 21 21 42l196 196q14 14 34 14q23 0 41.5 -16.5t18.5 -38.5q0 -19 -17 -36z" />
    <glyph glyph-name="Z" unicode="Z" 
d="M700 448q0 -90 -57 -162q-71 -90 -195 -90h-196q-25 0 -38.5 16.5t-13.5 39.5t13.5 39.5t38.5 16.5h196q66 0 103 39t37 101v140h-539q-25 0 -38.5 16.5t-13.5 39.5t13.5 39.5t38.5 16.5h595q22 0 39 -16t17 -40v-196zM644 0h-595q-21 0 -35 15t-14 41v196q0 91 55 162
q70 90 197 90h196q25 0 39 -16t14 -40q0 -23 -14 -39.5t-39 -16.5h-196q-66 0 -103 -39t-37 -101v-140h532q25 0 39 -16t14 -40q0 -23 -14 -39.5t-39 -16.5z" />
    <glyph glyph-name="bracketleft" unicode="[" horiz-adv-x="402" 
d="M252 0h-196q-22 0 -39 16t-17 40v588q0 25 16.5 40.5t39.5 15.5h196q25 0 39 -16t14 -40q0 -23 -14 -39.5t-39 -16.5h-140v-476h140q25 0 39 -16t14 -40q0 -23 -14 -39.5t-39 -16.5z" />
    <glyph glyph-name="backslash" unicode="\" horiz-adv-x="303" 
d="M204 64q1 -4 1 -12q0 -24 -15.5 -38.5t-37.5 -14.5q-19 0 -34 13t-19 38l-98 588q-1 3 -1 6.5v4.5q0 23 15.5 36.5t37.5 13.5q20 0 34.5 -11.5t18.5 -35.5z" />
    <glyph glyph-name="bracketright" unicode="]" horiz-adv-x="402" 
d="M308 56q0 -56 -56 -56h-196q-25 0 -38.5 16.5t-13.5 39.5t13.5 39.5t38.5 16.5h147v476h-147q-25 0 -38.5 16.5t-13.5 39.5t13.5 39.5t38.5 16.5h196q56 0 56 -56v-588z" />
    <glyph glyph-name="underscore" unicode="_" 
d="M644 112q25 0 39 -16t14 -40q0 -23 -14 -39.5t-39 -16.5h-588q-25 0 -38.5 16.5t-13.5 39.5t13.5 39.5t38.5 16.5h588z" />
    <glyph glyph-name="grave" unicode="`" horiz-adv-x="300" 
d="M161 842q39 -12 39 -50q0 -22 -14 -38t-37 -16q-5 0 -15 2l-95 25q-39 12 -39 50q0 22 14 38t37 16q5 0 15 -2z" />
    <glyph glyph-name="a" unicode="a" 
d="M700 252q0 -25 -16 -39t-40 -14q-23 0 -39.5 14t-16.5 39v196q0 66 -39 103t-101 37h-196q-25 0 -38.5 16.5t-13.5 39.5t13.5 39.5t38.5 16.5h196q90 0 162 -57q90 -71 90 -195v-196zM644 0h-392q-94 0 -165 57q-87 70 -87 195q0 129 86 197q70 55 166 55h196
q25 0 39 -16t14 -40q0 -23 -14 -39.5t-39 -16.5h-196q-69 0 -104.5 -34.5t-35.5 -105.5q0 -67 37.5 -103.5t102.5 -36.5h392q25 0 39 -16t14 -40q0 -23 -14 -39.5t-39 -16.5zM448 196h-196q-25 0 -38.5 16.5t-13.5 39.5t13.5 39.5t38.5 16.5h196q25 0 39 -16t14 -40
q0 -23 -14 -39.5t-39 -16.5z" />
    <glyph glyph-name="b" unicode="b" 
d="M700 252q0 -124 -86 -194q-72 -58 -166 -58h-392q-21 0 -38.5 14.5t-17.5 34.5v595q0 25 16.5 38.5t39.5 13.5t39.5 -13.5t16.5 -38.5v-532h336q48 0 84 20q63 35 63 120q0 69 -38.5 104.5t-108.5 35.5h-196q-22 0 -39 16t-17 40v196q0 25 16.5 38.5t39.5 13.5
t39.5 -13.5t16.5 -38.5v-140h140q95 0 165 -55q87 -68 87 -197zM448 196h-196q-25 0 -38.5 16.5t-13.5 39.5t13.5 39.5t38.5 16.5h196q25 0 39 -16t14 -40q0 -23 -14 -39.5t-39 -16.5z" />
    <glyph glyph-name="c" unicode="c" 
d="M644 196h-392q-25 0 -38.5 16.5t-13.5 39.5t13.5 39.5t38.5 16.5h392q25 0 39 -16t14 -40q0 -23 -14 -39.5t-39 -16.5zM644 0h-392q-94 0 -165 57q-87 70 -87 195q0 129 86 197q70 55 166 55h392q25 0 39 -16t14 -40q0 -23 -14 -39.5t-39 -16.5h-392q-69 0 -104.5 -34.5
t-35.5 -105.5q0 -67 37.5 -103.5t102.5 -36.5h392q25 0 39 -16t14 -40q0 -23 -14 -39.5t-39 -16.5z" />
    <glyph glyph-name="d" unicode="d" 
d="M700 49q0 -21 -15 -35t-41 -14h-392q-90 0 -162 57q-90 71 -90 195q0 128 89 197q71 55 163 55h140v140q0 25 16.5 38.5t39.5 13.5t39.5 -13.5t16.5 -38.5v-196q0 -56 -56 -56h-196q-65 0 -102.5 -34.5t-37.5 -105.5q0 -66 39 -103t101 -37h336v532q0 25 16.5 38.5
t39.5 13.5t39.5 -13.5t16.5 -38.5v-595zM448 196h-196q-25 0 -38.5 16.5t-13.5 39.5t13.5 39.5t38.5 16.5h196q25 0 39 -16t14 -40q0 -23 -14 -39.5t-39 -16.5z" />
    <glyph glyph-name="e" unicode="e" 
d="M448 392h-196q-25 0 -38.5 16.5t-13.5 39.5t13.5 39.5t38.5 16.5h196q25 0 39 -16t14 -40q0 -23 -14 -39.5t-39 -16.5zM700 448q0 -128 -89 -197q-71 -55 -163 -55h-196q-25 0 -38.5 16.5t-13.5 39.5t13.5 39.5t38.5 16.5h196q65 0 102.5 34.5t37.5 105.5q0 66 -39 103
t-101 37h-196q-66 0 -103 -36t-37 -104v-203q0 -60 36.5 -96.5t103.5 -36.5h294q25 0 39 -16t14 -40q0 -23 -14 -39.5t-39 -16.5h-294q-129 0 -197 85q-55 69 -55 160v203q0 124 86 194q72 58 166 58h196q90 0 162 -57q90 -71 90 -195z" />
    <glyph glyph-name="f" unicode="f" 
d="M644 588h-392q-66 0 -103 -39t-37 -101v-399q0 -25 -16 -39t-40 -14q-23 0 -39.5 14t-16.5 39v399q0 90 57 162q71 90 195 90h392q25 0 39 -16t14 -40q0 -23 -14 -39.5t-39 -16.5zM700 350q0 -80 -53 -121q-43 -33 -101 -33h-238v-147q0 -25 -16 -39t-40 -14
q-23 0 -39.5 14t-16.5 39v203q0 25 16.5 40.5t39.5 15.5h294q25 0 39 12t14 30q0 17 -13.5 29.5t-39.5 12.5h-294q-25 0 -38.5 16.5t-13.5 39.5t13.5 39.5t38.5 16.5h294q56 0 100 -35q54 -43 54 -119z" />
    <glyph glyph-name="g" unicode="g" 
d="M448 196h-196q-26 0 -39.5 15.5t-13.5 36.5q0 23 14.5 41.5t38.5 18.5h196q25 0 39 -16t14 -40q0 -23 -14 -39.5t-39 -16.5zM700 49q0 -89 -57 -159q-70 -86 -195 -86h-294q-25 0 -38.5 16.5t-13.5 39.5t13.5 39.5t38.5 16.5h294q66 0 103 37t37 96v399q0 25 16.5 38.5
t39.5 13.5t39.5 -13.5t16.5 -38.5v-399zM448 0h-196q-95 0 -165 54q-87 67 -87 191q0 129 86 200q71 59 166 59h196q25 0 39 -16t14 -40q0 -23 -14 -39.5t-39 -16.5h-196q-66 0 -103 -38t-37 -109q0 -67 36 -100t104 -33h196q25 0 39 -16t14 -40q0 -23 -14 -39.5t-39 -16.5z
" />
    <glyph glyph-name="h" unicode="h" 
d="M700 49q0 -25 -16 -39t-40 -14q-23 0 -39.5 14t-16.5 39v203q0 66 -36 103t-104 37h-196q-22 0 -39 16t-17 40v196q0 25 16.5 38.5t39.5 13.5t39.5 -13.5t16.5 -38.5v-140h140q129 0 197 -86q55 -70 55 -166v-203zM504 49q0 -25 -16 -39t-40 -14q-23 0 -39.5 14t-16.5 39
v147h-84v-147q0 -25 -16 -39t-40 -14q-23 0 -39.5 14t-16.5 39v203q0 25 16.5 40.5t39.5 15.5h196q56 0 56 -56v-203zM112 49q0 -25 -16 -39t-40 -14q-23 0 -39.5 14t-16.5 39v595q0 25 16.5 38.5t39.5 13.5t39.5 -13.5t16.5 -38.5v-595z" />
    <glyph glyph-name="i" unicode="i" horiz-adv-x="600" 
d="M350 588h-196q-25 0 -38.5 16.5t-13.5 39.5t13.5 39.5t38.5 16.5h196q25 0 39 -16t14 -40q0 -23 -14 -39.5t-39 -16.5zM448 0h-98q-25 0 -40.5 13.5t-15.5 35.5v399q0 21 15 35t41 14h98q25 0 39 -15t14 -38q0 -22 -13.5 -37t-39.5 -15h-49v-287h49q25 0 39 -15t14 -38
q0 -22 -13.5 -37t-39.5 -15zM203 49q0 -21 -14 -35t-35 -14h-105q-25 0 -38.5 15.5t-13.5 36.5q0 23 13 38t39 15h49v287h-49q-25 0 -38.5 15.5t-13.5 36.5q0 23 13 38t39 15h105q21 0 35 -14t14 -35v-399z" />
    <glyph glyph-name="j" unicode="j" 
d="M644 588h-196q-25 0 -38.5 16.5t-13.5 39.5t13.5 39.5t38.5 16.5h196q25 0 39 -16t14 -40q0 -23 -14 -39.5t-39 -16.5zM504 245q0 -21 -15 -35t-41 -14h-196q-25 0 -38.5 15.5t-13.5 36.5q0 23 13 38t39 15h140v147q0 25 16.5 38.5t39.5 13.5t39.5 -13.5t16.5 -38.5v-203
zM700 245q0 -125 -86 -191q-70 -54 -166 -54h-196q-124 0 -194 85q-58 70 -58 160q0 25 16.5 38.5t39.5 13.5t39.5 -13.5t16.5 -38.5q0 -63 36.5 -101.5t103.5 -38.5h196q48 0 84 20q63 35 63 120v203q0 25 15.5 38.5t37.5 13.5t37 -13t15 -39v-203z" />
    <glyph glyph-name="k" unicode="k" 
d="M105 644v-595q0 -25 -15 -39t-37 -14t-37.5 13.5t-15.5 39.5v595q0 25 15.5 38.5t37.5 13.5t37 -13t15 -39zM581 602l-203 -203h70q124 0 194 -86q58 -72 58 -166v-98q0 -25 -16 -39t-40 -14q-23 0 -39.5 14t-16.5 39v98q0 48 -20 84q-35 63 -120 63h-196
q-23 0 -40.5 16.5t-17.5 38.5q0 20 16 36l294 294q20 20 45 20q22 0 37.5 -15.5t15.5 -36.5q0 -13 -4.5 -23t-16.5 -22zM448 203q22 0 39 -16t17 -40v-98q0 -25 -16 -39t-40 -14q-23 0 -39.5 14t-16.5 39v49h-91v-49q0 -25 -15 -39t-37 -14t-37.5 13.5t-15.5 39.5v98
q0 56 56 56h196z" />
    <glyph glyph-name="l" unicode="l" horiz-adv-x="502" 
d="M350 98h-98q-21 0 -38.5 14.5t-17.5 34.5v497q0 25 16.5 38.5t39.5 13.5t39.5 -13.5t16.5 -38.5v-441h42q25 0 39 -15t14 -38q0 -22 -13.5 -37t-39.5 -15zM112 49q0 -25 -16 -39t-40 -14q-23 0 -39.5 14t-16.5 39v595q0 25 16.5 38.5t39.5 13.5t39.5 -13.5t16.5 -38.5
v-595z" />
    <glyph glyph-name="m" unicode="m" 
d="M700 56q0 -25 -16 -39t-40 -14q-23 0 -39.5 14t-16.5 39v196q0 58 -41 99t-99 41q-20 0 -44 -6q-8 -2 -26 -8q-11 -11 -25 -11t-31 11q-25 8 -37 11t-33 3q-58 0 -99 -41t-41 -99v-196q0 -25 -16 -39t-40 -14q-23 0 -39.5 14t-16.5 39v196q0 105 73.5 178.5t178.5 73.5
q56 0 98 -21q53 21 98 21q105 0 178.5 -73.5t73.5 -178.5v-196zM504 56q0 -56 -56 -56h-196q-22 0 -39 16t-17 40v196q0 25 16.5 38.5t39.5 13.5t39.5 -13.5t16.5 -38.5v-140h84v140q0 25 16.5 38.5t39.5 13.5t39.5 -13.5t16.5 -38.5v-196z" />
    <glyph glyph-name="n" unicode="n" 
d="M700 56q0 -25 -16 -39t-40 -14q-23 0 -39.5 14t-16.5 39v196q0 66 -39 103t-101 37h-196q-67 0 -105 -38q-42 -42 -42 -102v-196q0 -25 -15 -39t-37 -14t-37.5 13.5t-15.5 39.5v196q0 91 55 162q70 90 197 90h196q90 0 162 -57q90 -71 90 -195v-196zM504 56
q0 -25 -16 -39t-40 -14q-23 0 -39.5 14t-16.5 39v140h-91v-140q0 -25 -15 -39t-37 -14t-37.5 13.5t-15.5 39.5v196q0 22 16 39t40 17h196q21 0 38.5 -17.5t17.5 -38.5v-196z" />
    <glyph glyph-name="o" unicode="o" 
d="M700 252q0 -124 -86 -194q-72 -58 -166 -58h-196q-90 0 -162 57q-90 71 -90 195q0 123 89 194q73 58 163 58h196q94 0 165 -57q87 -70 87 -195zM595 252q0 66 -40 103t-107 37h-196q-63 0 -101.5 -36.5t-38.5 -103.5q0 -66 39 -103t101 -37h196q48 0 84 20q63 35 63 120z
M448 196h-196q-25 0 -38.5 16.5t-13.5 39.5t13.5 39.5t38.5 16.5h196q25 0 39 -16t14 -40q0 -23 -14 -39.5t-39 -16.5z" />
    <glyph glyph-name="p" unicode="p" 
d="M448 196h-196q-25 0 -38.5 16.5t-13.5 39.5t13.5 39.5t38.5 16.5h196q25 0 39 -16t14 -40q0 -23 -14 -39.5t-39 -16.5zM700 252q0 -123 -89 -194q-73 -58 -163 -58h-140v-140q0 -25 -16 -39t-40 -14q-23 0 -39.5 14t-16.5 39v196q0 22 16 39t40 17h196q63 0 101.5 36.5
t38.5 103.5q0 66 -39 103t-101 37h-336v-532q0 -25 -16 -39t-40 -14q-23 0 -39.5 14t-16.5 39v588q0 21 14.5 38.5t34.5 17.5h399q90 0 162 -57q90 -71 90 -195z" />
    <glyph glyph-name="q" unicode="q" 
d="M448 196h-196q-25 0 -38.5 16.5t-13.5 39.5t13.5 39.5t38.5 16.5h196q25 0 39 -16t14 -40q0 -23 -14 -39.5t-39 -16.5zM700 -140q0 -25 -16 -39t-40 -14q-23 0 -39.5 14t-16.5 39v532h-336q-63 0 -101.5 -36.5t-38.5 -103.5q0 -66 39 -103t101 -37h196q25 0 40.5 -16.5
t15.5 -39.5v-196q0 -25 -16 -39t-40 -14q-23 0 -39.5 14t-16.5 39v140h-140q-90 0 -162 57q-90 71 -90 195q0 123 89 194q73 58 163 58h392q25 0 40.5 -16.5t15.5 -39.5v-588z" />
    <glyph glyph-name="r" unicode="r" 
d="M644 392h-392q-66 0 -103 -39t-37 -101v-196q0 -25 -16 -39t-40 -14q-23 0 -39.5 14t-16.5 39v196q0 91 55 162q70 90 197 90h392q25 0 39 -16t14 -40q0 -23 -14 -39.5t-39 -16.5zM644 196h-336v-140q0 -25 -16 -39t-40 -14q-23 0 -39.5 14t-16.5 39v196q0 22 16 39
t40 17h392q25 0 39 -16t14 -40q0 -23 -14 -39.5t-39 -16.5z" />
    <glyph glyph-name="s" unicode="s" 
d="M448 196h-196q-90 0 -162 57q-90 71 -90 195q0 123 89 194q73 58 163 58h98q25 0 39 -16t14 -40q0 -23 -14 -39.5t-39 -16.5h-98q-63 0 -101.5 -36.5t-38.5 -103.5q0 -66 39 -103t101 -37h196q25 0 39 -16t14 -40q0 -23 -14 -39.5t-39 -16.5zM700 252q0 -124 -86 -194
q-72 -58 -166 -58h-392q-25 0 -38.5 16.5t-13.5 39.5t13.5 39.5t38.5 16.5h392q48 0 84 20q63 35 63 120q0 66 -40 103t-107 37h-196q-25 0 -38.5 16.5t-13.5 39.5t13.5 39.5t38.5 16.5h196q94 0 165 -57q87 -70 87 -195z" />
    <glyph glyph-name="t" unicode="t" 
d="M644 392h-196q-25 0 -40.5 16.5t-15.5 39.5v196q0 25 16.5 38.5t39.5 13.5t39.5 -13.5t16.5 -38.5v-140h140q25 0 39 -16t14 -40q0 -23 -14 -39.5t-39 -16.5zM644 196h-196q-25 0 -38.5 16.5t-13.5 39.5t13.5 39.5t38.5 16.5h196q25 0 39 -16t14 -40q0 -23 -14 -39.5
t-39 -16.5zM301 448q0 -21 -14.5 -38.5t-34.5 -17.5h-203q-25 0 -38.5 16.5t-13.5 39.5t13.5 39.5t38.5 16.5h147v140q0 25 15.5 38.5t37.5 13.5t37 -13t15 -39v-196zM644 0h-196q-94 0 -165 57q-87 70 -87 195q0 25 15.5 38.5t37.5 13.5t37 -13t15 -39q0 -66 40 -103
t107 -37h196q25 0 39 -16t14 -40q0 -23 -14 -39.5t-39 -16.5z" />
    <glyph glyph-name="u" unicode="u" 
d="M504 252q0 -22 -16 -39t-40 -17h-196q-21 0 -38.5 17.5t-17.5 38.5v196q0 25 16.5 38.5t39.5 13.5t39.5 -13.5t16.5 -38.5v-140h91v140q0 25 15.5 38.5t37.5 13.5t37 -13t15 -39v-196zM700 252q0 -91 -55 -162q-70 -90 -197 -90h-196q-90 0 -162 57q-90 71 -90 195v196
q0 25 16.5 38.5t39.5 13.5t39.5 -13.5t16.5 -38.5v-196q0 -66 39 -103t101 -37h196q67 0 105 38q42 42 42 102v196q0 25 15.5 38.5t37.5 13.5t37 -13t15 -39v-196z" />
    <glyph glyph-name="v" unicode="v" 
d="M507 427l-98 -203l-15 -15q-15 -13 -34 -13q-16 0 -29.5 7.5t-19.5 20.5l-98 203q-7 14 -7 28q0 22 17.5 36.5t39.5 14.5q15 0 28 -7.5t20 -22.5l49 -105l49 105q13 28 46 28q23 0 40.5 -14t17.5 -37q0 -15 -6 -26zM703 427l-196 -399q-14 -28 -49 -28h-196
q-16 0 -29.5 7.5t-19.5 20.5l-203 399q-7 14 -7 27q0 22 17.5 36.5t40.5 14.5q32 0 47 -29l182 -364h133l182 364q14 29 47 29q22 0 39.5 -15.5t17.5 -37.5q0 -11 -6 -25z" />
    <glyph glyph-name="w" unicode="w" horiz-adv-x="1185" 
d="M882 427l-98 -203q-15 -30 -49 -30t-49 30l-98 203q-6 12 -6 24q0 23 18 37.5t42 14.5q31 0 44 -27l49 -105l49 105q13 26 43 26q23 0 41.5 -14.5t18.5 -37.5q0 -13 -5 -23zM1085 427l-203 -399q-5 -11 -19.5 -19.5t-29.5 -8.5h-196q-35 0 -49 28l-49 98l-49 -98
q-14 -28 -49 -28h-196q-16 0 -29.5 7.5t-19.5 20.5l-180 399q-6 14 -6 26q0 21 15 36t34 15q25 0 39 -28l182 -364h126l84 161q7 14 21 22t28 8q34 0 49 -30l84 -161h133l182 364q14 28 45 28q22 0 40.5 -15.5t18.5 -37.5q0 -12 -6 -24zM490 427l-98 -203q-14 -30 -49 -30
q-34 0 -49 30l-98 203q-6 12 -6 23q0 22 18.5 36.5t42.5 14.5q31 0 43 -25l49 -105l49 105q7 14 18 20t26 6q23 0 41.5 -14.5t18.5 -36.5q0 -12 -6 -24z" />
    <glyph glyph-name="x" unicode="x" 
d="M700 49q0 -25 -15 -39t-37 -14t-37.5 13.5t-15.5 39.5q0 67 -39 105q-43 42 -108 42h-7q-25 0 -38.5 15.5t-13.5 36.5q0 23 13 38t39 15h7q48 0 84 21q63 36 63 126q0 25 15.5 38.5t37.5 13.5t37 -13t15 -39q0 -71 -23 -120t-68 -83q43 -27 67 -76t24 -120zM448 392h-196
q-25 0 -38.5 15.5t-13.5 36.5q0 23 13 38t39 15h196q25 0 39 -15t14 -38q0 -22 -13.5 -37t-39.5 -15zM259 196h-7q-60 0 -100 -40t-40 -107q0 -25 -16 -39t-40 -14q-23 0 -39.5 14t-16.5 39q0 69 27 121q24 46 64 75q-42 36 -64 80q-27 54 -27 123q0 25 16.5 38.5t39.5 13.5
t39.5 -13.5t16.5 -38.5q0 -70 38.5 -108.5t101.5 -38.5h7q25 0 39 -15t14 -38q0 -22 -13.5 -37t-39.5 -15zM448 0h-196q-25 0 -38.5 15.5t-13.5 36.5q0 23 13 38t39 15h196q25 0 39 -15t14 -38q0 -22 -13.5 -37t-39.5 -15z" />
    <glyph glyph-name="y" unicode="y" 
d="M504 245q0 -21 -17 -35t-39 -14h-196q-25 0 -40.5 13.5t-15.5 35.5v203q0 25 15.5 38.5t37.5 13.5t37 -13t15 -39v-147h91v147q0 25 16.5 38.5t39.5 13.5t39.5 -13.5t16.5 -38.5v-203zM700 49q0 -90 -57 -162q-71 -90 -195 -90h-196q-25 0 -38.5 16.5t-13.5 39.5
t13.5 39.5t38.5 16.5h196q66 0 103 39t37 101v399q0 25 16.5 38.5t39.5 13.5t39.5 -13.5t16.5 -38.5v-399zM448 0h-196q-129 0 -197 85q-55 69 -55 160v203q0 25 15.5 38.5t37.5 13.5t37 -13t15 -39v-203q0 -60 40 -100t107 -40h196q25 0 39 -15t14 -38q0 -22 -13.5 -37
t-39.5 -15z" />
    <glyph glyph-name="z" unicode="z" 
d="M700 448q0 -95 -55 -165q-68 -87 -197 -87h-196q-25 0 -38.5 15.5t-13.5 36.5q0 23 13 38t39 15h196q67 0 105 39q42 43 42 108v140h-245q-25 0 -38.5 16.5t-13.5 39.5t13.5 39.5t38.5 16.5h294q25 0 40.5 -16.5t15.5 -39.5v-196zM644 0h-588q-21 0 -38.5 14.5
t-17.5 34.5v196q0 94 57 165q70 87 195 87h196q25 0 39 -15t14 -38q0 -22 -13.5 -37t-39.5 -15h-196q-66 0 -103 -40t-37 -107v-140h532q25 0 39 -15t14 -38q0 -22 -13.5 -37t-39.5 -15z" />
    <glyph glyph-name="braceleft" unicode="{" 
d="M679 609l-98 -98q-19 -19 -42 -19q-22 0 -38 16t-16 38q0 23 19 42l98 98q9 9 18.5 13t20.5 4q23 0 39.5 -16.5t16.5 -38.5q0 -21 -18 -39zM504 350q0 -63 -45.5 -108.5t-108.5 -45.5t-108.5 45.5t-45.5 108.5q0 47 27.5 85.5t70.5 54.5v154q0 25 15.5 38.5t37.5 13.5
t37 -13t15 -39v-154q47 -16 76 -54t29 -86zM189 588q19 -19 19 -44q0 -22 -15 -38t-37 -16q-12 0 -22 4.5t-22 16.5l-98 98q-9 9 -13 18.5t-4 20.5q0 22 16.5 38.5t38.5 16.5q10 0 20 -4t19 -13zM700 350q0 -145 -103.5 -247.5t-246.5 -102.5q-147 0 -248.5 101.5
t-101.5 248.5q0 25 15.5 38.5t37.5 13.5t37 -13t15 -39q0 -100 72 -169t173 -69q100 0 169 69t69 169q0 25 16.5 38.5t39.5 13.5t39.5 -13.5t16.5 -38.5zM392 350q0 16 -13 29t-29 13q-20 0 -34.5 -12.5t-14.5 -29.5q0 -16 14 -29t35 -13q16 0 29 13t13 29z" />
    <glyph glyph-name="bar" unicode="|" horiz-adv-x="212" 
d="M112 49q0 -25 -16 -39t-40 -14q-23 0 -39.5 14t-16.5 39v595q0 25 16.5 38.5t39.5 13.5t39.5 -13.5t16.5 -38.5v-595z" />
    <glyph glyph-name="braceright" unicode="}" 
d="M700 149q0 -10 -3 -17.5t-11 -24.5l-98 -98q-10 -10 -19.5 -14t-19.5 -4q-22 0 -38 17t-16 40q0 22 16 38l84 84v21h-98q-22 -44 -61.5 -71t-85.5 -27q-47 0 -85.5 27.5t-54.5 70.5h-98v-21l84 -84q18 -18 18 -40t-16 -38t-39 -16q-22 0 -40 17l-105 98q-7 7 -10.5 19
t-3.5 23v196q0 15 2.5 24.5t11.5 17.5l105 98q17 16 39 16q23 0 39 -16t16 -39q0 -9 -4 -19t-13 -19l-84 -84v-21h98q16 43 54.5 70.5t85.5 27.5q46 0 85.5 -27t61.5 -71h98v21l-84 84q-15 15 -15 36q0 23 16 41t38 18q20 0 38 -18l98 -98q9 -9 11.5 -22t2.5 -20v-196z
M392 248q0 16 -13 29t-29 13q-18 0 -30 -13t-12 -29q0 -17 12.5 -29.5t29.5 -12.5q16 0 29 12t13 30z" />
    <glyph glyph-name="asciitilde" unicode="~" horiz-adv-x="612" 
d="M494 355q-28 -24 -64 -40.5t-76 -16.5q-35 0 -67.5 13t-65.5 44q-13 15 -29 22.5t-29 7.5q-17 0 -35 -10q-13 -7 -26 -20q-19 -19 -41 -19q-23 0 -40 18t-17 41q0 13 4.5 23.5t16.5 20.5q21 22 60.5 39t80.5 17q37 0 69.5 -13t62.5 -43q16 -16 30 -22t28 -6q19 0 37 10
q6 4 23.5 18t38.5 14q23 0 41 -17t18 -40q0 -24 -20 -41z" />
    <glyph glyph-name="c128" 
d="M700 252q0 -21 -17.5 -38.5t-38.5 -17.5h-294q-25 0 -38.5 16.5t-13.5 39.5t13.5 39.5t38.5 16.5h238v84h-238q-25 0 -38.5 16.5t-13.5 39.5t13.5 39.5t38.5 16.5h294q21 0 38.5 -17.5t17.5 -38.5v-196zM644 0h-294q-76 0 -146 28q-90 36 -141 106q-63 86 -63 216t62 215
q51 70 141 106q72 29 147 29h294q25 0 39 -16t14 -40q0 -23 -14 -39.5t-39 -16.5h-294q-107 0 -176 -61t-69 -177q0 -115 69.5 -176.5t175.5 -61.5h294q25 0 39 -16t14 -40q0 -23 -14 -39.5t-39 -16.5z" />
    <glyph glyph-name="quotesinglbase" unicode="&#x201a;" horiz-adv-x="212" 
d="M112 -42q0 -25 -16 -39t-40 -14q-23 0 -39.5 14t-16.5 39v98q0 25 16.5 38.5t39.5 13.5t39.5 -13.5t16.5 -38.5v-98z" />
    <glyph glyph-name="florin" unicode="&#x192;" 
d="M644 588h-392q-66 0 -103 -39t-37 -101v-399q0 -25 -16 -39t-40 -14q-23 0 -39.5 14t-16.5 39v399q0 90 57 162q71 90 195 90h392q25 0 39 -16t14 -40q0 -23 -14 -39.5t-39 -16.5zM56 -84q66 0 103 37t37 96v203q0 25 16.5 40.5t39.5 15.5h182q25 0 39 12t14 30
q0 17 -13.5 29.5t-39.5 12.5h-182q-25 0 -38.5 16.5t-13.5 39.5t13.5 39.5t38.5 16.5h182q56 0 100 -35q54 -43 54 -119q0 -80 -53 -121q-43 -33 -101 -33h-126v-147q0 -89 -57 -159q-70 -86 -195 -86q-25 0 -38.5 16.5t-13.5 39.5t13.5 39.5t38.5 16.5z" />
    <glyph glyph-name="quotedblbase" unicode="&#x201e;" horiz-adv-x="310" 
d="M210 48q0 -25 -15 -39t-37 -14t-37.5 13.5t-15.5 39.5q0 -25 -15 -39t-37 -14t-37.5 13.5t-15.5 39.5v98q0 25 15.5 38.5t37.5 13.5t37 -13t15 -39q0 25 15.5 38.5t37.5 13.5t37 -13t15 -39v-98z" />
    <glyph glyph-name="quoteleft" unicode="&#x2018;" horiz-adv-x="212" 
d="M112 548q0 -25 -16 -39t-40 -14q-23 0 -39.5 14t-16.5 39v98q0 25 16.5 38.5t39.5 13.5t39.5 -13.5t16.5 -38.5v-98z" />
    <glyph glyph-name="quoteright" unicode="&#x2019;" horiz-adv-x="212" 
d="M112 548q0 -25 -16 -39t-40 -14q-23 0 -39.5 14t-16.5 39v98q0 25 16.5 38.5t39.5 13.5t39.5 -13.5t16.5 -38.5v-98z" />
    <glyph glyph-name="quotedblleft" unicode="&#x201c;" horiz-adv-x="310" 
d="M210 548q0 -25 -15 -39t-37 -14t-37.5 13.5t-15.5 39.5q0 -25 -15 -39t-37 -14t-37.5 13.5t-15.5 39.5v98q0 25 15.5 38.5t37.5 13.5t37 -13t15 -39q0 25 15.5 38.5t37.5 13.5t37 -13t15 -39v-98z" />
    <glyph glyph-name="quotedblright" unicode="&#x201d;" horiz-adv-x="310" 
d="M210 548q0 -25 -15 -39t-37 -14t-37.5 13.5t-15.5 39.5q0 -25 -15 -39t-37 -14t-37.5 13.5t-15.5 39.5v98q0 25 15.5 38.5t37.5 13.5t37 -13t15 -39q0 25 15.5 38.5t37.5 13.5t37 -13t15 -39v-98z" />
    <glyph glyph-name="bullet" unicode="&#x2022;" horiz-adv-x="408" 
d="M308 350q0 -67 -44.5 -110.5t-109.5 -43.5q-64 0 -109 44t-45 110q0 63 45.5 108.5t108.5 45.5t108.5 -45.5t45.5 -108.5zM196 350q0 16 -13 29t-29 13q-19 0 -30.5 -12.5t-11.5 -29.5q0 -42 42 -42q18 0 30 10.5t12 31.5z" />
    <glyph glyph-name="tilde" unicode="&#x2dc;" horiz-adv-x="612" 
d="M494 355q-28 -24 -64 -40.5t-76 -16.5q-35 0 -67.5 13t-65.5 44q-13 15 -29 22.5t-29 7.5q-17 0 -35 -10q-13 -7 -26 -20q-19 -19 -41 -19q-23 0 -40 18t-17 41q0 13 4.5 23.5t16.5 20.5q21 22 60.5 39t80.5 17q37 0 69.5 -13t62.5 -43q16 -16 30 -22t28 -6q19 0 37 10
q6 4 23.5 18t38.5 14q23 0 41 -17t18 -40q0 -24 -20 -41z" />
    <glyph glyph-name="trademark" unicode="&#x2122;" 
d="M700 350q0 -147 -101.5 -248.5t-248.5 -101.5q-143 0 -246.5 101.5t-103.5 248.5q0 145 103.5 247.5t246.5 102.5q147 0 248.5 -101.5t101.5 -248.5zM581 350q-12 6 -21 10q-28 12 -56 18v-28v-28q18 4 35.5 10t41.5 18zM553 476q-31 52 -85 82t-118 30t-117.5 -29.5
t-85.5 -82.5q46 15 96 21.5t107 6.5q58 0 110.5 -6.5t92.5 -21.5zM392 350q0 18 -10.5 30t-31.5 12q-16 0 -29 -13t-13 -29t13 -29t29 -13q19 0 30.5 12.5t11.5 29.5zM553 224q-40 -15 -92 -21.5t-111 -6.5q-57 0 -107 6.5t-96 21.5q31 -52 85 -82t118 -30t117.5 29.5
t85.5 82.5zM203 322q-7 7 -7 28q0 14 1 18.5t6 9.5q-21 -4 -41 -10.5t-43 -17.5q24 -12 42 -18t42 -10z" />
    <glyph glyph-name="exclamdown" unicode="&#xa1;" horiz-adv-x="409" 
d="M0 252q0 21 17.5 38.5t38.5 17.5h196q25 0 40.5 -16.5t15.5 -39.5v-392q0 -25 -16 -39t-40 -14q-23 0 -39.5 14t-16.5 39v336h-84v-336q0 -25 -16 -39t-40 -14q-23 0 -39.5 14t-16.5 39v392zM56 504h196q25 0 39 -16t14 -40q0 -23 -14 -39.5t-39 -16.5h-196
q-25 0 -38.5 16.5t-13.5 39.5t13.5 39.5t38.5 16.5z" />
    <glyph glyph-name="sterling" unicode="&#xa3;" 
d="M644 196h-270q-21 0 -38.5 14.5t-17.5 34.5v199q0 25 16.5 38.5t39.5 13.5t39.5 -13.5t16.5 -38.5v-143h214q25 0 39 -15t14 -38q0 -22 -13.5 -37t-39.5 -15zM472 588h-122q-66 0 -103 -39t-37 -101v-203q0 -21 -17 -35t-39 -14h-98q-25 0 -38.5 15.5t-13.5 36.5
q0 23 13 38t39 15h42v147q0 90 57 162q71 90 195 90h122q25 0 39 -16t14 -40q0 -23 -14 -39.5t-39 -16.5zM644 0h-588q-25 0 -38.5 16.5t-13.5 39.5t13.5 39.5t38.5 16.5h588q25 0 39 -16t14 -40q0 -23 -14 -39.5t-39 -16.5z" />
    <glyph glyph-name="yen" unicode="&#xa5;" 
d="M495 609l-98 -98q-20 -20 -39 -20q-18 0 -38 20l-98 98q-19 19 -19 39q0 22 18.5 37.5t42.5 15.5q21 0 35 -15l56 -63l63 63q13 13 33 13q23 0 41.5 -16.5t18.5 -38.5q0 -19 -16 -35zM691 511l-182 -182v-77q0 -56 -56 -56h-196q-22 0 -39 16t-17 40v77l-182 182
q-9 9 -13 18.5t-4 20.5q0 23 17 40t41 17t43 -19l196 -196q8 -17 11 -24.5t3 -17.5v-42h84v42q0 21 21 42l196 196q14 14 34 14q23 0 41.5 -16.5t18.5 -38.5q0 -19 -17 -36zM453 0h-196q-25 0 -38.5 16.5t-13.5 39.5t13.5 39.5t38.5 16.5h196q25 0 39 -16t14 -40
q0 -23 -14 -39.5t-39 -16.5z" />
    <glyph glyph-name="brokenbar" unicode="&#xa6;" 
d="M602 448q0 -25 -16 -39t-40 -14q-23 0 -39.5 14t-16.5 39q0 63 -36.5 101.5t-103.5 38.5q-66 0 -103 -39t-37 -101q0 -25 -16 -39t-40 -14q-23 0 -39.5 14t-16.5 39q0 94 57 165q70 87 195 87q129 0 197 -86q55 -70 55 -166zM644 0h-588q-25 0 -38.5 16.5t-13.5 39.5
t13.5 39.5t38.5 16.5h161l-98 98q-18 18 -18 40t16.5 38.5t38.5 16.5t40 -18l98 -98v259q0 25 16.5 38.5t39.5 13.5t39.5 -13.5t16.5 -38.5v-259l105 98q18 17 40 17t39 -16t17 -38t-19 -40l-105 -98h161q25 0 39 -16t14 -40q0 -23 -14 -39.5t-39 -16.5z" />
    <glyph glyph-name="section" unicode="&#xa7;" 
d="M581 189q14 -15 14 -34q0 -22 -18 -40t-40 -18q-19 0 -33 15l-91 98h-7v-154q0 -25 -16 -39t-40 -14q-23 0 -39.5 14t-16.5 39v154h-7l-98 -98q-8 -8 -18 -12t-19 -4q-22 0 -39 17t-17 40q0 20 16 36l98 98q-9 13 -11.5 27.5t-2.5 35.5q0 63 45.5 108.5t108.5 45.5
t108.5 -45.5t45.5 -108.5q0 -15 -3 -27t-11 -36zM700 350q0 -25 -16 -39t-40 -14q-23 0 -39.5 14t-16.5 39q0 100 -69 169t-169 69t-169 -69t-69 -169q0 -25 -16 -39t-40 -14q-23 0 -39.5 14t-16.5 39q0 147 101.5 248.5t248.5 101.5t248.5 -101.5t101.5 -248.5zM308 350
q0 -18 10.5 -30t31.5 -12q19 0 30.5 12.5t11.5 29.5q0 18 -10.5 30t-31.5 12q-19 0 -30.5 -12.5t-11.5 -29.5z" />
    <glyph glyph-name="copyright" unicode="&#xa9;" 
d="M700 56q0 -22 -16 -39t-40 -17h-196q-25 0 -38.5 16.5t-13.5 39.5t13.5 39.5t38.5 16.5h140v238q0 107 -61 176t-177 69q-115 0 -176.5 -69.5t-61.5 -175.5v-238h140q25 0 39 -16t14 -40q0 -23 -14 -39.5t-39 -16.5h-196q-25 0 -40.5 16.5t-15.5 39.5v294q0 122 70 219
q95 131 280 131q129 0 215 -64q70 -52 106 -142q29 -72 29 -144v-294zM504 252q0 -21 -17.5 -38.5t-38.5 -17.5h-196q-21 0 -38.5 17.5t-17.5 38.5v98q0 56 35 100q43 54 119 54q77 0 119 -53q35 -44 35 -101v-98zM392 308v42q0 25 -12.5 38.5t-29.5 13.5q-18 0 -30 -13
t-12 -39v-42h84z" />
    <glyph glyph-name="logicalnot" unicode="&#xac;" horiz-adv-x="744" 
 />
    <glyph glyph-name="registered" unicode="&#xae;" 
d="M700 56q0 -22 -16 -39t-40 -17h-196q-25 0 -38.5 16.5t-13.5 39.5t13.5 39.5t38.5 16.5h140v238q0 107 -61 176t-177 69q-115 0 -176.5 -69.5t-61.5 -175.5v-238h140q25 0 39 -16t14 -40q0 -23 -14 -39.5t-39 -16.5h-196q-25 0 -40.5 16.5t-15.5 39.5v294q0 122 70 219
q95 131 280 131q129 0 215 -64q70 -52 106 -142q29 -72 29 -144v-294zM504 252q0 -21 -17.5 -38.5t-38.5 -17.5h-196q-21 0 -38.5 17.5t-17.5 38.5v98q0 56 35 100q43 54 119 54q77 0 119 -53q35 -44 35 -101v-98zM392 308v42q0 25 -12.5 38.5t-29.5 13.5q-18 0 -30 -13
t-12 -39v-42h84z" />
    <glyph glyph-name="degree" unicode="&#xb0;" horiz-adv-x="408" 
d="M308 546q0 -63 -45.5 -108.5t-108.5 -45.5t-108.5 45.5t-45.5 108.5t45.5 108.5t108.5 45.5t108.5 -45.5t45.5 -108.5zM196 546q0 19 -12.5 30.5t-29.5 11.5q-18 0 -30 -10.5t-12 -31.5q0 -16 13 -29t29 -13t29 13t13 29z" />
    <glyph glyph-name="acute" unicode="&#xb4;" horiz-adv-x="300" 
d="M161 765l-95 -25q-6 -2 -16 -2q-22 0 -36 16t-14 38q0 40 39 50l95 25q6 2 16 2q22 0 36 -16t14 -38q0 -17 -9.5 -30.5t-29.5 -19.5z" />
    <glyph glyph-name="mu" unicode="&#xb5;" 
d="M700 448q0 -25 -16 -39t-40 -14q-23 0 -39.5 14t-16.5 39v140h-476v-140q0 -25 -16 -39t-40 -14q-23 0 -39.5 14t-16.5 39v196q0 25 13.5 40.5t35.5 15.5h595q22 0 39 -16t17 -40v-196zM448 392h-196q-25 0 -38.5 16.5t-13.5 39.5t13.5 39.5t38.5 16.5h196q25 0 39 -16
t14 -40q0 -23 -14 -39.5t-39 -16.5zM700 154q0 -63 -45.5 -108.5t-108.5 -45.5t-108.5 45.5t-45.5 108.5t45.5 108.5t108.5 45.5t108.5 -45.5t45.5 -108.5zM301 154q0 -63 -42.5 -108.5t-104.5 -45.5q-67 0 -110.5 44.5t-43.5 109.5q0 64 44 109t110 45q63 0 105 -45
t42 -109zM588 154q0 16 -13 29t-29 13q-19 0 -30.5 -12.5t-11.5 -29.5q0 -42 42 -42q18 0 30 10.5t12 31.5zM196 154q0 16 -13 29t-29 13q-20 0 -34.5 -12.5t-14.5 -29.5q0 -20 14 -31t35 -11q18 0 30 10.5t12 31.5z" />
    <glyph glyph-name="questiondown" unicode="&#xbf;" 
d="M0 56q0 124 86 194q72 58 166 58q25 0 39 -16t14 -40q0 -23 -14 -39.5t-39 -16.5q-48 0 -84 -20q-63 -35 -63 -120q0 -66 40 -103t107 -37h196q66 0 103 39t37 101q0 25 16.5 38.5t39.5 13.5t39.5 -13.5t16.5 -38.5q0 -94 -57 -165q-70 -87 -195 -87h-196q-94 0 -165 57
q-87 70 -87 195zM252 112h140v140q0 25 16.5 38.5t39.5 13.5t39.5 -13.5t16.5 -38.5v-196q0 -21 -17.5 -38.5t-38.5 -17.5h-196q-25 0 -38.5 16.5t-13.5 39.5t13.5 39.5t38.5 16.5zM252 504h196q25 0 39 -16t14 -40q0 -23 -14 -39.5t-39 -16.5h-196q-25 0 -38.5 16.5
t-13.5 39.5t13.5 39.5t38.5 16.5z" />
    <glyph glyph-name="Agrave" unicode="&#xc0;" 
d="M700 56q0 -25 -16 -39t-40 -14q-23 0 -39.5 14t-16.5 39v294q0 101 -61 169.5t-177 68.5q-115 0 -176.5 -68.5t-61.5 -169.5v-294q0 -25 -16 -39t-40 -14q-23 0 -39.5 14t-16.5 39v294q0 122 70 219q95 131 280 131q126 0 212 -64q71 -53 108 -142q30 -72 30 -144v-294z
M504 252q0 -21 -17.5 -38.5t-38.5 -17.5h-196q-25 0 -40.5 16.5t-15.5 39.5v98q0 56 35 100q43 54 119 54q77 0 119 -53q35 -44 35 -101v-98zM448 0h-196q-25 0 -38.5 16.5t-13.5 39.5t13.5 39.5t38.5 16.5h196q25 0 39 -16t14 -40q0 -23 -14 -39.5t-39 -16.5zM392 308v42
q0 25 -12.5 38.5t-29.5 13.5q-18 0 -30 -13t-12 -39v-42h84zM411 842q39 -12 39 -50q0 -22 -14 -38t-37 -16q-5 0 -15 2l-95 25q-39 12 -39 50q0 22 14 38t37 16q5 0 15 -2z" />
    <glyph glyph-name="Aacute" unicode="&#xc1;" 
d="M700 56q0 -25 -16 -39t-40 -14q-23 0 -39.5 14t-16.5 39v294q0 101 -61 169.5t-177 68.5q-115 0 -176.5 -68.5t-61.5 -169.5v-294q0 -25 -16 -39t-40 -14q-23 0 -39.5 14t-16.5 39v294q0 122 70 219q95 131 280 131q126 0 212 -64q71 -53 108 -142q30 -72 30 -144v-294z
M504 252q0 -21 -17.5 -38.5t-38.5 -17.5h-196q-25 0 -40.5 16.5t-15.5 39.5v98q0 56 35 100q43 54 119 54q77 0 119 -53q35 -44 35 -101v-98zM448 0h-196q-25 0 -38.5 16.5t-13.5 39.5t13.5 39.5t38.5 16.5h196q25 0 39 -16t14 -40q0 -23 -14 -39.5t-39 -16.5zM392 308v42
q0 25 -12.5 38.5t-29.5 13.5q-18 0 -30 -13t-12 -39v-42h84zM411 765l-95 -25q-6 -2 -16 -2q-22 0 -36 16t-14 38q0 40 39 50l95 25q6 2 16 2q22 0 36 -16t14 -38q0 -17 -9.5 -30.5t-29.5 -19.5z" />
    <glyph glyph-name="Adieresis" unicode="&#xc4;" 
d="M700 56q0 -25 -16 -39t-40 -14q-23 0 -39.5 14t-16.5 39v294q0 101 -61 169.5t-177 68.5q-115 0 -176.5 -68.5t-61.5 -169.5v-294q0 -25 -16 -39t-40 -14q-23 0 -39.5 14t-16.5 39v294q0 122 70 219q95 131 280 131q126 0 212 -64q71 -53 108 -142q30 -72 30 -144v-294z
M504 252q0 -21 -17.5 -38.5t-38.5 -17.5h-196q-25 0 -40.5 16.5t-15.5 39.5v98q0 56 35 100q43 54 119 54q77 0 119 -53q35 -44 35 -101v-98zM448 0h-196q-25 0 -38.5 16.5t-13.5 39.5t13.5 39.5t38.5 16.5h196q25 0 39 -16t14 -40q0 -23 -14 -39.5t-39 -16.5zM392 308v42
q0 25 -12.5 38.5t-29.5 13.5q-18 0 -30 -13t-12 -39v-42h84zM504 798q0 -24 -16 -40t-40 -16t-40 16t-16 40t16 40t40 16t40 -16t16 -40zM308 798q0 -24 -16 -40t-40 -16t-40 16t-16 40t16 40t40 16t40 -16t16 -40z" />
    <glyph glyph-name="Egrave" unicode="&#xc8;" 
d="M609 252q0 -21 -17.5 -38.5t-38.5 -17.5h-294q-25 0 -38.5 16.5t-13.5 39.5t13.5 39.5t38.5 16.5h238v84h-238q-25 0 -38.5 16.5t-13.5 39.5t13.5 39.5t38.5 16.5h294q21 0 38.5 -17.5t17.5 -38.5v-196zM651 0h-595q-22 0 -39 16t-17 40v588q0 25 16.5 40.5t39.5 15.5
h595q25 0 39 -16t14 -40q0 -23 -14 -39.5t-39 -16.5h-539v-476h539q25 0 39 -16t14 -40q0 -23 -14 -39.5t-39 -16.5zM411 842q39 -12 39 -50q0 -22 -14 -38t-37 -16q-5 0 -15 2l-95 25q-39 12 -39 50q0 22 14 38t37 16q5 0 15 -2z" />
    <glyph glyph-name="Eacute" unicode="&#xc9;" 
d="M609 252q0 -21 -17.5 -38.5t-38.5 -17.5h-294q-25 0 -38.5 16.5t-13.5 39.5t13.5 39.5t38.5 16.5h238v84h-238q-25 0 -38.5 16.5t-13.5 39.5t13.5 39.5t38.5 16.5h294q21 0 38.5 -17.5t17.5 -38.5v-196zM651 0h-595q-22 0 -39 16t-17 40v588q0 25 16.5 40.5t39.5 15.5
h595q25 0 39 -16t14 -40q0 -23 -14 -39.5t-39 -16.5h-539v-476h539q25 0 39 -16t14 -40q0 -23 -14 -39.5t-39 -16.5zM411 765l-95 -25q-6 -2 -16 -2q-22 0 -36 16t-14 38q0 40 39 50l95 25q6 2 16 2q22 0 36 -16t14 -38q0 -17 -9.5 -30.5t-29.5 -19.5z" />
    <glyph glyph-name="Edieresis" unicode="&#xcb;" 
d="M609 252q0 -21 -17.5 -38.5t-38.5 -17.5h-294q-25 0 -38.5 16.5t-13.5 39.5t13.5 39.5t38.5 16.5h238v84h-238q-25 0 -38.5 16.5t-13.5 39.5t13.5 39.5t38.5 16.5h294q21 0 38.5 -17.5t17.5 -38.5v-196zM651 0h-595q-22 0 -39 16t-17 40v588q0 25 16.5 40.5t39.5 15.5
h595q25 0 39 -16t14 -40q0 -23 -14 -39.5t-39 -16.5h-539v-476h539q25 0 39 -16t14 -40q0 -23 -14 -39.5t-39 -16.5zM504 798q0 -24 -16 -40t-40 -16t-40 16t-16 40t16 40t40 16t40 -16t16 -40zM308 798q0 -24 -16 -40t-40 -16t-40 16t-16 40t16 40t40 16t40 -16t16 -40z
" />
    <glyph glyph-name="Igrave" unicode="&#xcc;" horiz-adv-x="600" 
d="M448 0h-98q-56 0 -56 56v588q0 56 56 56h98q25 0 39 -16t14 -40q0 -23 -14 -39.5t-39 -16.5h-42v-476h42q25 0 39 -16t14 -40q0 -23 -14 -39.5t-39 -16.5zM203 56q0 -25 -13.5 -40.5t-35.5 -15.5h-98q-25 0 -38.5 16.5t-13.5 39.5t13.5 39.5t38.5 16.5h42v476h-42
q-25 0 -38.5 16.5t-13.5 39.5t13.5 39.5t38.5 16.5h98q21 0 35 -15t14 -41v-588zM321 842q39 -12 39 -50q0 -22 -14 -38t-37 -16q-5 0 -15 2l-95 25q-39 12 -39 50q0 22 14 38t37 16q5 0 15 -2z" />
    <glyph glyph-name="Iacute" unicode="&#xcd;" horiz-adv-x="600" 
d="M448 0h-98q-56 0 -56 56v588q0 56 56 56h98q25 0 39 -16t14 -40q0 -23 -14 -39.5t-39 -16.5h-42v-476h42q25 0 39 -16t14 -40q0 -23 -14 -39.5t-39 -16.5zM203 56q0 -25 -13.5 -40.5t-35.5 -15.5h-98q-25 0 -38.5 16.5t-13.5 39.5t13.5 39.5t38.5 16.5h42v476h-42
q-25 0 -38.5 16.5t-13.5 39.5t13.5 39.5t38.5 16.5h98q21 0 35 -15t14 -41v-588zM301 765l-95 -25q-6 -2 -16 -2q-22 0 -36 16t-14 38q0 40 39 50l95 25q6 2 16 2q22 0 36 -16t14 -38q0 -17 -9.5 -30.5t-29.5 -19.5z" />
    <glyph glyph-name="Idieresis" unicode="&#xcf;" horiz-adv-x="600" 
d="M448 0h-98q-56 0 -56 56v588q0 56 56 56h98q25 0 39 -16t14 -40q0 -23 -14 -39.5t-39 -16.5h-42v-476h42q25 0 39 -16t14 -40q0 -23 -14 -39.5t-39 -16.5zM203 56q0 -25 -13.5 -40.5t-35.5 -15.5h-98q-25 0 -38.5 16.5t-13.5 39.5t13.5 39.5t38.5 16.5h42v476h-42
q-25 0 -38.5 16.5t-13.5 39.5t13.5 39.5t38.5 16.5h98q21 0 35 -15t14 -41v-588zM406 798q0 -24 -16 -40t-40 -16t-40 16t-16 40t16 40t40 16t40 -16t16 -40zM203 798q0 -24 -16 -40t-40 -16t-40 16t-16 40t16 40t40 16t40 -16t16 -40z" />
    <glyph glyph-name="Ograve" unicode="&#xd2;" 
d="M411 842q39 -12 39 -50q0 -22 -14 -38t-37 -16q-5 0 -15 2l-95 25q-39 12 -39 50q0 22 14 38t37 16q5 0 15 -2zM700 350q0 -145 -103.5 -247.5t-246.5 -102.5q-147 0 -248.5 101.5t-101.5 248.5q0 143 101.5 246.5t248.5 103.5q142 0 246 -104t104 -246zM588 350
q0 95 -69.5 166.5t-168.5 71.5t-168.5 -70.5t-69.5 -167.5q0 -100 69 -169t169 -69t169 69t69 169zM504 350q0 -67 -44.5 -110.5t-109.5 -43.5q-64 0 -109 44t-45 110q0 63 45.5 108.5t108.5 45.5t108.5 -45.5t45.5 -108.5zM392 350q0 16 -13 29t-29 13q-19 0 -30.5 -12.5
t-11.5 -29.5q0 -42 42 -42q18 0 30 10.5t12 31.5z" />
    <glyph glyph-name="Oacute" unicode="&#xd3;" 
d="M700 350q0 -145 -103.5 -247.5t-246.5 -102.5q-147 0 -248.5 101.5t-101.5 248.5q0 143 101.5 246.5t248.5 103.5q142 0 246 -104t104 -246zM588 350q0 95 -69.5 166.5t-168.5 71.5t-168.5 -70.5t-69.5 -167.5q0 -100 69 -169t169 -69t169 69t69 169zM504 350
q0 -67 -44.5 -110.5t-109.5 -43.5q-64 0 -109 44t-45 110q0 63 45.5 108.5t108.5 45.5t108.5 -45.5t45.5 -108.5zM392 350q0 16 -13 29t-29 13q-19 0 -30.5 -12.5t-11.5 -29.5q0 -42 42 -42q18 0 30 10.5t12 31.5zM411 765l-95 -25q-6 -2 -16 -2q-22 0 -36 16t-14 38
q0 40 39 50l95 25q6 2 16 2q22 0 36 -16t14 -38q0 -17 -9.5 -30.5t-29.5 -19.5z" />
    <glyph glyph-name="Odieresis" unicode="&#xd6;" 
d="M700 350q0 -145 -103.5 -247.5t-246.5 -102.5q-147 0 -248.5 101.5t-101.5 248.5q0 143 101.5 246.5t248.5 103.5q142 0 246 -104t104 -246zM588 350q0 95 -69.5 166.5t-168.5 71.5t-168.5 -70.5t-69.5 -167.5q0 -100 69 -169t169 -69t169 69t69 169zM504 350
q0 -67 -44.5 -110.5t-109.5 -43.5q-64 0 -109 44t-45 110q0 63 45.5 108.5t108.5 45.5t108.5 -45.5t45.5 -108.5zM392 350q0 16 -13 29t-29 13q-19 0 -30.5 -12.5t-11.5 -29.5q0 -42 42 -42q18 0 30 10.5t12 31.5zM504 798q0 -24 -16 -40t-40 -16t-40 16t-16 40t16 40t40 16
t40 -16t16 -40zM308 798q0 -24 -16 -40t-40 -16t-40 16t-16 40t16 40t40 16t40 -16t16 -40z" />
    <glyph glyph-name="Ugrave" unicode="&#xd9;" 
d="M700 350q0 -125 -72 -222q-95 -128 -278 -128q-130 0 -215 62q-70 51 -106 141q-29 72 -29 147v294q0 21 14.5 38.5t34.5 17.5h203q25 0 39 -16t14 -40q0 -23 -14 -39.5t-39 -16.5h-140v-238q0 -104 61 -171t177 -67t177 67t61 171v238h-140q-25 0 -38.5 16.5t-13.5 39.5
t13.5 39.5t38.5 16.5h196q21 0 38.5 -17.5t17.5 -38.5v-294zM504 350q0 -56 -35 -100q-43 -54 -119 -54q-77 0 -119 53q-35 44 -35 101v98q0 25 16.5 38.5t39.5 13.5t39.5 -13.5t16.5 -38.5v-98q0 -25 12 -39t30 -14q17 0 29.5 13.5t12.5 39.5v98q0 25 16.5 38.5t39.5 13.5
t39.5 -13.5t16.5 -38.5v-98zM411 842q39 -12 39 -50q0 -22 -14 -38t-37 -16q-5 0 -15 2l-95 25q-39 12 -39 50q0 22 14 38t37 16q5 0 15 -2z" />
    <glyph glyph-name="Uacute" unicode="&#xda;" 
d="M700 350q0 -125 -72 -222q-95 -128 -278 -128q-130 0 -215 62q-70 51 -106 141q-29 72 -29 147v294q0 21 14.5 38.5t34.5 17.5h203q25 0 39 -16t14 -40q0 -23 -14 -39.5t-39 -16.5h-140v-238q0 -104 61 -171t177 -67t177 67t61 171v238h-140q-25 0 -38.5 16.5t-13.5 39.5
t13.5 39.5t38.5 16.5h196q21 0 38.5 -17.5t17.5 -38.5v-294zM504 350q0 -56 -35 -100q-43 -54 -119 -54q-77 0 -119 53q-35 44 -35 101v98q0 25 16.5 38.5t39.5 13.5t39.5 -13.5t16.5 -38.5v-98q0 -25 12 -39t30 -14q17 0 29.5 13.5t12.5 39.5v98q0 25 16.5 38.5t39.5 13.5
t39.5 -13.5t16.5 -38.5v-98zM411 765l-95 -25q-6 -2 -16 -2q-22 0 -36 16t-14 38q0 40 39 50l95 25q6 2 16 2q22 0 36 -16t14 -38q0 -17 -9.5 -30.5t-29.5 -19.5z" />
    <glyph glyph-name="Udieresis" unicode="&#xdc;" 
d="M700 350q0 -125 -72 -222q-95 -128 -278 -128q-130 0 -215 62q-70 51 -106 141q-29 72 -29 147v294q0 21 14.5 38.5t34.5 17.5h203q25 0 39 -16t14 -40q0 -23 -14 -39.5t-39 -16.5h-140v-238q0 -104 61 -171t177 -67t177 67t61 171v238h-140q-25 0 -38.5 16.5t-13.5 39.5
t13.5 39.5t38.5 16.5h196q21 0 38.5 -17.5t17.5 -38.5v-294zM504 350q0 -56 -35 -100q-43 -54 -119 -54q-77 0 -119 53q-35 44 -35 101v98q0 25 16.5 38.5t39.5 13.5t39.5 -13.5t16.5 -38.5v-98q0 -25 12 -39t30 -14q17 0 29.5 13.5t12.5 39.5v98q0 25 16.5 38.5t39.5 13.5
t39.5 -13.5t16.5 -38.5v-98zM504 798q0 -24 -16 -40t-40 -16t-40 16t-16 40t16 40t40 16t40 -16t16 -40zM308 798q0 -24 -16 -40t-40 -16t-40 16t-16 40t16 40t40 16t40 -16t16 -40z" />
    <glyph glyph-name="agrave" unicode="&#xe0;" 
d="M700 252q0 -25 -16 -39t-40 -14q-23 0 -39.5 14t-16.5 39v196q0 66 -39 103t-101 37h-196q-25 0 -38.5 16.5t-13.5 39.5t13.5 39.5t38.5 16.5h196q90 0 162 -57q90 -71 90 -195v-196zM644 0h-392q-94 0 -165 57q-87 70 -87 195q0 129 86 197q70 55 166 55h196
q25 0 39 -16t14 -40q0 -23 -14 -39.5t-39 -16.5h-196q-69 0 -104.5 -34.5t-35.5 -105.5q0 -67 37.5 -103.5t102.5 -36.5h392q25 0 39 -16t14 -40q0 -23 -14 -39.5t-39 -16.5zM448 196h-196q-25 0 -38.5 16.5t-13.5 39.5t13.5 39.5t38.5 16.5h196q25 0 39 -16t14 -40
q0 -23 -14 -39.5t-39 -16.5zM411 842q39 -12 39 -50q0 -22 -14 -38t-37 -16q-5 0 -15 2l-95 25q-39 12 -39 50q0 22 14 38t37 16q5 0 15 -2z" />
    <glyph glyph-name="aacute" unicode="&#xe1;" 
d="M700 252q0 -25 -16 -39t-40 -14q-23 0 -39.5 14t-16.5 39v196q0 66 -39 103t-101 37h-196q-25 0 -38.5 16.5t-13.5 39.5t13.5 39.5t38.5 16.5h196q90 0 162 -57q90 -71 90 -195v-196zM644 0h-392q-94 0 -165 57q-87 70 -87 195q0 129 86 197q70 55 166 55h196
q25 0 39 -16t14 -40q0 -23 -14 -39.5t-39 -16.5h-196q-69 0 -104.5 -34.5t-35.5 -105.5q0 -67 37.5 -103.5t102.5 -36.5h392q25 0 39 -16t14 -40q0 -23 -14 -39.5t-39 -16.5zM448 196h-196q-25 0 -38.5 16.5t-13.5 39.5t13.5 39.5t38.5 16.5h196q25 0 39 -16t14 -40
q0 -23 -14 -39.5t-39 -16.5zM411 765l-95 -25q-6 -2 -16 -2q-22 0 -36 16t-14 38q0 40 39 50l95 25q6 2 16 2q22 0 36 -16t14 -38q0 -17 -9.5 -30.5t-29.5 -19.5z" />
    <glyph glyph-name="adieresis" unicode="&#xe4;" 
d="M700 252q0 -25 -16 -39t-40 -14q-23 0 -39.5 14t-16.5 39v196q0 66 -39 103t-101 37h-196q-25 0 -38.5 16.5t-13.5 39.5t13.5 39.5t38.5 16.5h196q90 0 162 -57q90 -71 90 -195v-196zM644 0h-392q-94 0 -165 57q-87 70 -87 195q0 129 86 197q70 55 166 55h196
q25 0 39 -16t14 -40q0 -23 -14 -39.5t-39 -16.5h-196q-69 0 -104.5 -34.5t-35.5 -105.5q0 -67 37.5 -103.5t102.5 -36.5h392q25 0 39 -16t14 -40q0 -23 -14 -39.5t-39 -16.5zM448 196h-196q-25 0 -38.5 16.5t-13.5 39.5t13.5 39.5t38.5 16.5h196q25 0 39 -16t14 -40
q0 -23 -14 -39.5t-39 -16.5zM504 798q0 -24 -16 -40t-40 -16t-40 16t-16 40t16 40t40 16t40 -16t16 -40zM308 798q0 -24 -16 -40t-40 -16t-40 16t-16 40t16 40t40 16t40 -16t16 -40z" />
    <glyph glyph-name="egrave" unicode="&#xe8;" 
d="M411 842q39 -12 39 -50q0 -22 -14 -38t-37 -16q-5 0 -15 2l-95 25q-39 12 -39 50q0 22 14 38t37 16q5 0 15 -2zM448 392h-196q-25 0 -38.5 15.5t-13.5 36.5q0 23 13 38t39 15h196q25 0 39 -15t14 -38q0 -22 -13.5 -37t-39.5 -15zM700 448q0 -128 -89 -197
q-71 -55 -163 -55h-196q-25 0 -38.5 15.5t-13.5 36.5q0 23 13 38t39 15h196q62 0 101 38t39 109q0 66 -39 103t-101 37h-196q-48 0 -84 -20q-63 -35 -63 -120v-203q0 -60 40 -100t107 -40h294q25 0 39 -15t14 -38q0 -22 -13.5 -37t-39.5 -15h-294q-129 0 -197 85
q-55 69 -55 160v203q0 124 86 194q72 58 166 58h196q90 0 162 -57q90 -71 90 -195z" />
    <glyph glyph-name="eacute" unicode="&#xe9;" 
d="M411 765l-95 -25q-6 -2 -16 -2q-22 0 -36 16t-14 38q0 40 39 50l95 25q6 2 16 2q22 0 36 -16t14 -38q0 -17 -9.5 -30.5t-29.5 -19.5zM448 392h-196q-25 0 -38.5 15.5t-13.5 36.5q0 23 13 38t39 15h196q25 0 39 -15t14 -38q0 -22 -13.5 -37t-39.5 -15zM700 448
q0 -128 -89 -197q-71 -55 -163 -55h-196q-25 0 -38.5 15.5t-13.5 36.5q0 23 13 38t39 15h196q62 0 101 38t39 109q0 66 -39 103t-101 37h-196q-48 0 -84 -20q-63 -35 -63 -120v-203q0 -60 40 -100t107 -40h294q25 0 39 -15t14 -38q0 -22 -13.5 -37t-39.5 -15h-294
q-129 0 -197 85q-55 69 -55 160v203q0 124 86 194q72 58 166 58h196q90 0 162 -57q90 -71 90 -195z" />
    <glyph glyph-name="edieresis" unicode="&#xeb;" 
d="M504 798q0 -24 -16 -40t-40 -16t-40 16t-16 40t16 40t40 16t40 -16t16 -40zM308 798q0 -24 -16 -40t-40 -16t-40 16t-16 40t16 40t40 16t40 -16t16 -40zM448 392h-196q-25 0 -38.5 16.5t-13.5 39.5t13.5 39.5t38.5 16.5h196q25 0 39 -16t14 -40q0 -23 -14 -39.5
t-39 -16.5zM700 448q0 -128 -89 -197q-71 -55 -163 -55h-196q-25 0 -38.5 16.5t-13.5 39.5t13.5 39.5t38.5 16.5h196q65 0 102.5 34.5t37.5 105.5q0 66 -39 103t-101 37h-196q-66 0 -103 -36t-37 -104v-203q0 -60 36.5 -96.5t103.5 -36.5h294q25 0 39 -16t14 -40
q0 -23 -14 -39.5t-39 -16.5h-294q-129 0 -197 85q-55 69 -55 160v203q0 124 86 194q72 58 166 58h196q90 0 162 -57q90 -71 90 -195z" />
    <glyph glyph-name="ntilde" unicode="&#xf1;" 
d="M700 56q0 -25 -16 -39t-40 -14q-23 0 -39.5 14t-16.5 39v196q0 66 -39 103t-101 37h-196q-67 0 -105 -38q-42 -42 -42 -102v-196q0 -25 -15 -39t-37 -14t-37.5 13.5t-15.5 39.5v196q0 91 55 162q70 90 197 90h196q90 0 162 -57q90 -71 90 -195v-196zM504 56
q0 -25 -16 -39t-40 -14q-23 0 -39.5 14t-16.5 39v140h-91v-140q0 -25 -15 -39t-37 -14t-37.5 13.5t-15.5 39.5v196q0 22 16 39t40 17h196q21 0 38.5 -17.5t17.5 -38.5v-196zM584 635q-28 -24 -64 -40.5t-76 -16.5q-35 0 -67.5 13t-65.5 44q-13 15 -29 22.5t-29 7.5
q-17 0 -35 -10q-13 -7 -26 -20q-19 -19 -41 -19q-23 0 -40 18t-17 41q0 13 4.5 23.5t16.5 20.5q21 22 60.5 39t80.5 17q37 0 69.5 -13t62.5 -43q16 -16 30 -22t28 -6q19 0 37 10q6 4 23.5 18t38.5 14q23 0 41 -17t18 -40q0 -24 -20 -41z" />
    <glyph glyph-name="ograve" unicode="&#xf2;" 
d="M411 713q39 -12 39 -50q0 -22 -14 -38t-37 -16q-5 0 -15 2l-95 25q-39 12 -39 50q0 22 14 38t37 16q5 0 15 -2zM700 252q0 -124 -86 -194q-72 -58 -166 -58h-196q-90 0 -162 57q-90 71 -90 195q0 123 89 194q73 58 163 58h196q94 0 165 -57q87 -70 87 -195zM595 252
q0 66 -40 103t-107 37h-196q-63 0 -101.5 -36.5t-38.5 -103.5q0 -66 39 -103t101 -37h196q48 0 84 20q63 35 63 120zM448 196h-196q-25 0 -38.5 16.5t-13.5 39.5t13.5 39.5t38.5 16.5h196q25 0 39 -16t14 -40q0 -23 -14 -39.5t-39 -16.5z" />
    <glyph glyph-name="oacute" unicode="&#xf3;" 
d="M700 252q0 -124 -86 -194q-72 -58 -166 -58h-196q-90 0 -162 57q-90 71 -90 195q0 123 89 194q73 58 163 58h196q94 0 165 -57q87 -70 87 -195zM595 252q0 66 -40 103t-107 37h-196q-63 0 -101.5 -36.5t-38.5 -103.5q0 -66 39 -103t101 -37h196q48 0 84 20q63 35 63 120z
M448 196h-196q-25 0 -38.5 16.5t-13.5 39.5t13.5 39.5t38.5 16.5h196q25 0 39 -16t14 -40q0 -23 -14 -39.5t-39 -16.5zM411 638l-95 -25q-6 -2 -16 -2q-22 0 -36 16t-14 38q0 40 39 50l95 25q6 2 16 2q22 0 36 -16t14 -38q0 -17 -9.5 -30.5t-29.5 -19.5z" />
    <glyph glyph-name="odieresis" unicode="&#xf6;" 
d="M700 252q0 -124 -86 -194q-72 -58 -166 -58h-196q-90 0 -162 57q-90 71 -90 195q0 123 89 194q73 58 163 58h196q94 0 165 -57q87 -70 87 -195zM595 252q0 66 -40 103t-107 37h-196q-63 0 -101.5 -36.5t-38.5 -103.5q0 -66 39 -103t101 -37h196q48 0 84 20q63 35 63 120z
M448 196h-196q-25 0 -38.5 16.5t-13.5 39.5t13.5 39.5t38.5 16.5h196q25 0 39 -16t14 -40q0 -23 -14 -39.5t-39 -16.5zM504 668q0 -24 -16 -40t-40 -16t-40 16t-16 40t16 40t40 16t40 -16t16 -40zM308 668q0 -24 -16 -40t-40 -16t-40 16t-16 40t16 40t40 16t40 -16t16 -40z
" />
    <glyph glyph-name="ugrave" unicode="&#xf9;" 
d="M504 252q0 -22 -16 -39t-40 -17h-196q-21 0 -38.5 17.5t-17.5 38.5v196q0 25 16.5 38.5t39.5 13.5t39.5 -13.5t16.5 -38.5v-140h91v140q0 25 15.5 38.5t37.5 13.5t37 -13t15 -39v-196zM700 252q0 -91 -55 -162q-70 -90 -197 -90h-196q-90 0 -162 57q-90 71 -90 195v196
q0 25 16.5 38.5t39.5 13.5t39.5 -13.5t16.5 -38.5v-196q0 -66 39 -103t101 -37h196q67 0 105 38q42 42 42 102v196q0 25 15.5 38.5t37.5 13.5t37 -13t15 -39v-196zM411 713q39 -12 39 -50q0 -22 -14 -38t-37 -16q-5 0 -15 2l-95 25q-39 12 -39 50q0 22 14 38t37 16
q5 0 15 -2z" />
    <glyph glyph-name="uacute" unicode="&#xfa;" 
d="M504 252q0 -22 -16 -39t-40 -17h-196q-21 0 -38.5 17.5t-17.5 38.5v196q0 25 16.5 38.5t39.5 13.5t39.5 -13.5t16.5 -38.5v-140h91v140q0 25 15.5 38.5t37.5 13.5t37 -13t15 -39v-196zM700 252q0 -91 -55 -162q-70 -90 -197 -90h-196q-90 0 -162 57q-90 71 -90 195v196
q0 25 16.5 38.5t39.5 13.5t39.5 -13.5t16.5 -38.5v-196q0 -66 39 -103t101 -37h196q67 0 105 38q42 42 42 102v196q0 25 15.5 38.5t37.5 13.5t37 -13t15 -39v-196zM411 638l-95 -25q-6 -2 -16 -2q-22 0 -36 16t-14 38q0 40 39 50l95 25q6 2 16 2q22 0 36 -16t14 -38
q0 -17 -9.5 -30.5t-29.5 -19.5z" />
    <glyph glyph-name="udieresis" unicode="&#xfc;" 
d="M504 252q0 -22 -16 -39t-40 -17h-196q-21 0 -38.5 17.5t-17.5 38.5v196q0 25 16.5 38.5t39.5 13.5t39.5 -13.5t16.5 -38.5v-140h91v140q0 25 15.5 38.5t37.5 13.5t37 -13t15 -39v-196zM700 252q0 -91 -55 -162q-70 -90 -197 -90h-196q-90 0 -162 57q-90 71 -90 195v196
q0 25 16.5 38.5t39.5 13.5t39.5 -13.5t16.5 -38.5v-196q0 -66 39 -103t101 -37h196q67 0 105 38q42 42 42 102v196q0 25 15.5 38.5t37.5 13.5t37 -13t15 -39v-196zM504 668q0 -24 -16 -40t-40 -16t-40 16t-16 40t16 40t40 16t40 -16t16 -40zM308 668q0 -24 -16 -40t-40 -16
t-40 16t-16 40t16 40t40 16t40 -16t16 -40z" />
    <glyph glyph-name="yacute" unicode="&#xfd;" 
d="M504 245q0 -21 -17 -35t-39 -14h-196q-25 0 -40.5 13.5t-15.5 35.5v203q0 25 15.5 38.5t37.5 13.5t37 -13t15 -39v-147h91v147q0 25 16.5 38.5t39.5 13.5t39.5 -13.5t16.5 -38.5v-203zM700 49q0 -90 -57 -162q-71 -90 -195 -90h-196q-25 0 -38.5 16.5t-13.5 39.5
t13.5 39.5t38.5 16.5h196q66 0 103 39t37 101v399q0 25 16.5 38.5t39.5 13.5t39.5 -13.5t16.5 -38.5v-399zM448 0h-196q-129 0 -197 85q-55 69 -55 160v203q0 25 15.5 38.5t37.5 13.5t37 -13t15 -39v-203q0 -60 40 -100t107 -40h196q25 0 39 -15t14 -38q0 -22 -13.5 -37
t-39.5 -15zM411 638l-95 -25q-6 -2 -16 -2q-22 0 -36 16t-14 38q0 40 39 50l95 25q6 2 16 2q22 0 36 -16t14 -38q0 -17 -9.5 -30.5t-29.5 -19.5z" />
    <glyph glyph-name="ydieresis" unicode="&#xff;" 
d="M504 245q0 -21 -17 -35t-39 -14h-196q-25 0 -40.5 13.5t-15.5 35.5v203q0 25 15.5 38.5t37.5 13.5t37 -13t15 -39v-147h91v147q0 25 16.5 38.5t39.5 13.5t39.5 -13.5t16.5 -38.5v-203zM700 49q0 -90 -57 -162q-71 -90 -195 -90h-196q-25 0 -38.5 16.5t-13.5 39.5
t13.5 39.5t38.5 16.5h196q66 0 103 39t37 101v399q0 25 16.5 38.5t39.5 13.5t39.5 -13.5t16.5 -38.5v-399zM448 0h-196q-129 0 -197 85q-55 69 -55 160v203q0 25 15.5 38.5t37.5 13.5t37 -13t15 -39v-203q0 -60 40 -100t107 -40h196q25 0 39 -15t14 -38q0 -22 -13.5 -37
t-39.5 -15zM504 668q0 -24 -16 -40t-40 -16t-40 16t-16 40t16 40t40 16t40 -16t16 -40zM308 668q0 -24 -16 -40t-40 -16t-40 16t-16 40t16 40t40 16t40 -16t16 -40z" />
  </font>
</defs>
</svg>
